<svg xmlns="http://www.w3.org/2000/svg" width="256" height="160" viewBox="0" version="1"><defs><linearGradient x1="50%" y1="0%" x2="50%" y2="100%" id="lg1"><stop stop-color="#0090BA" offset="0%"/><stop stop-color="#006C88" offset="100%"/></linearGradient></defs><g stroke="none" stroke-width="1" fill="none" fill-rule="evenodd"><rect d="M0,0 L0,160 L256,160 L256,0 L0,0 Z M0,0" fill="url(#lg1)" x="0" y="0" width="256" height="160"/><rect d="M0,0 L0,2 L256,2 L256,0 L0,0 Z M0,0" fill="#80C7DC" x="0" y="0" width="256" height="2"/><g transform="translate(19.000000, 40.000000)" fill="#000000"><path d="M177 0C154 0 135 19 135 42 135 64 154 83 177 83 199 83 218 64 218 42 218 19 199 0 177 0ZM176 67C162 67 150 55 150 41 150 27 162 15 176 15 190 15 202 27 202 41 202 55 190 67 176 67ZM176 67"/><path d="M106 0C84 0 65 19 65 42 65 64 84 83 106 83 119 83 130 77 138 68 134 64 131 59 130 53 126 62 117 68 106 68 92 68 80 56 80 42 80 27 92 15 106 15 117 15 126 21 130 30 131 24 134 19 138 15 130 6 119 0 106 0L106 0 106 0 106 0ZM106 0"/><path d="M55 67L24 67C25 66 26 65 27 63 28 62 32 59 36 54 41 50 45 46 47 44 50 40 52 37 53 33 54 30 55 26 55 23 55 16 53 11 48 7 43 2 37 0 29 0 22 0 16 2 11 6 6 9 3 16 2 24L17 26C18 21 19 18 21 16 23 14 25 13 29 13 32 13 35 14 36 16 38 18 39 20 39 24 39 27 38 30 36 33 34 36 30 40 23 47 14 55 8 61 5 66 2 71 1 77 0 82L55 82 55 67 55 67 55 67 55 67ZM55 67"/></g><g transform="translate(19.000000, 38.000000)" fill="#FFFFFF"><path d="M177 0C154 0 135 19 135 42 135 64 154 83 177 83 199 83 218 64 218 42 218 19 199 0 177 0ZM176 67C162 67 150 55 150 41 150 27 162 15 176 15 190 15 202 27 202 41 202 55 190 67 176 67ZM176 67"/><path d="M106 0C84 0 65 19 65 42 65 64 84 83 106 83 119 83 130 77 138 68 134 64 131 59 130 53 126 62 117 68 106 68 92 68 80 56 80 42 80 27 92 15 106 15 117 15 126 21 130 30 131 24 134 19 138 15 130 6 119 0 106 0L106 0 106 0 106 0ZM106 0"/><path d="M55 67L24 67C25 66 26 65 27 63 28 62 32 59 36 54 41 50 45 46 47 44 50 40 52 37 53 33 54 30 55 26 55 23 55 16 53 11 48 7 43 2 37 0 29 0 22 0 16 2 11 6 6 9 3 16 2 24L17 26C18 21 19 18 21 16 23 14 25 13 29 13 32 13 35 14 36 16 38 18 39 20 39 24 39 27 38 30 36 33 34 36 30 40 23 47 14 55 8 61 5 66 2 71 1 77 0 82L55 82 55 67 55 67 55 67 55 67ZM55 67"/></g></g></svg>