<svg xmlns="http://www.w3.org/2000/svg" width="256" height="160" viewBox="0" version="1.1"><defs><linearGradient x1="50%" y1="0%" x2="50%" y2="100%" id="lg1"><stop stop-color="#FCE697" offset="0%"/><stop stop-color="#FDB74F" offset="100%"/></linearGradient></defs><g stroke="none" stroke-width="1" fill="none" fill-rule="evenodd"><rect d="M0,0 L0,160 L256,160 L256,0 L0,0 Z M0,0" fill="url(#lg1)" x="0" y="0" width="256" height="160"/><rect d="M0,0 L0,2 L256,2 L256,0 L0,0 Z M0,0" fill="#FDF1CA" x="0" y="0" width="256" height="2"/><g transform="translate(20.000000, 52.000000)" fill="#FFFFFF"><path d="M133.1 51.1C120.6 60.2 102.5 65 86.9 65 65.1 65 45.4 57.1 30.5 43.9 29.3 42.8 30.4 41.4 31.8 42.2 47.8 51.4 67.7 56.9 88.2 56.9 102.1 56.9 117.3 54.1 131.3 48.3 133.4 47.4 135.1 49.7 133.1 51.1"/><path d="M138.3 44.6C136.8 42.6 128 43.7 124 44.1 122.8 44.3 122.6 43.2 123.7 42.5 130.7 37.4 142.2 38.9 143.6 40.6 144.9 42.3 143.2 54 136.6 59.6 135.6 60.4 134.7 60 135.1 58.8 136.6 55.1 139.9 46.7 138.3 44.6"/><path d="M125.2 7.2L125.2 2.2C125.2 1.5 125.8 1 126.5 1L148.1 1C148.8 1 149.3 1.5 149.3 2.2L149.3 6.5C149.3 7.2 148.8 8.1 147.7 9.6L136.5 25.9C140.7 25.8 145.1 26.4 148.9 28.6 149.7 29 149.9 29.8 150 30.5L150 35.7C150 36.4 149.2 37.3 148.4 36.8 141.7 33.3 132.9 32.9 125.5 36.9 124.8 37.3 124 36.5 124 35.8L124 30.8C124 30 124 28.6 124.8 27.4L137.8 8.4 126.5 8.4C125.8 8.4 125.2 7.9 125.2 7.2"/><path d="M44.9 37L38.2 37C37.6 37 37.1 36.5 37 35.9L37 1.9C37 1.3 37.6 0.7 38.3 0.7L44.5 0.7C45.2 0.7 45.7 1.2 45.7 1.9L45.7 6.3 45.9 6.3C47.5 2 50.5 0 54.6 0 58.8 0 61.4 2 63.3 6.3 64.9 2 68.6 0 72.5 0 75.4 0 78.4 1.1 80.3 3.7 82.4 6.6 82 10.7 82 14.4L82 35.8C82 36.5 81.4 37 80.7 37L74 37C73.3 37 72.8 36.4 72.8 35.8L72.8 17.8C72.8 16.4 72.9 12.8 72.6 11.4 72.1 9.1 70.6 8.5 68.7 8.5 67.1 8.5 65.4 9.6 64.7 11.3 64 13 64.1 15.9 64.1 17.8L64.1 35.8C64.1 36.5 63.5 37 62.8 37L56.1 37C55.4 37 54.9 36.4 54.9 35.8L54.9 17.8C54.9 14 55.5 8.4 50.8 8.4 46 8.4 46.2 13.9 46.2 17.8L46.2 35.8C46.2 36.5 45.6 37 44.9 37"/><path d="M167.9 7C163.3 7 163 13.7 163 17.9 163 22.1 162.9 31 167.9 31 172.8 31 173 23.8 173 19.4 173 16.5 172.9 13.1 172.1 10.3 171.4 7.9 169.9 7 167.9 7L167.9 7 167.9 7 167.9 7ZM167.9 0C177.7 0 183 8.5 183 19.3 183 29.7 177.1 38 167.9 38 158.2 38 153 29.5 153 18.9 153 8.3 158.3 0 167.9 0L167.9 0ZM167.9 0"/><path d="M195.7 37L189.2 37C188.5 37 188 36.4 188 35.8L188 1.8C188.1 1.2 188.6 0.7 189.3 0.7L195.4 0.7C195.9 0.7 196.4 1.1 196.5 1.7L196.5 6.9 196.7 6.9C198.5 2.2 201.1 0 205.6 0 208.6 0 211.4 1.1 213.3 4 215 6.7 215 11.3 215 14.6L215 35.9C214.9 36.5 214.4 37 213.7 37L207.1 37C206.5 37 206.1 36.5 206 35.9L206 17.5C206 13.8 206.4 8.4 201.9 8.4 200.3 8.4 198.8 9.4 198.1 11.1 197.1 13.1 197 15.2 197 17.5L197 35.8C197 36.5 196.4 37 195.7 37"/><path d="M114.5 37.4C114 37.8 113.4 37.9 112.9 37.6 110.7 35.8 110.3 34.9 109.1 33.2 105.4 36.9 102.8 38 98 38 92.4 38 88 34.5 88 27.6 88 22.2 90.9 18.6 95.1 16.8 98.8 15.2 103.8 14.9 107.7 14.5L107.7 13.6C107.7 12 107.9 10.1 106.9 8.8 106.1 7.6 104.5 7.1 103.2 7.1 100.6 7.1 98.3 8.4 97.8 11 97.7 11.6 97.2 12.2 96.6 12.3L90.1 11.6C89.6 11.4 89 11 89.1 10.2 90.6 2.4 97.7 0 104.1 0 107.4 0 111.6 0.9 114.2 3.3 117.4 6.3 117.1 10.4 117.1 14.8L117.1 25.1C117.1 28.2 118.4 29.6 119.6 31.3 120.1 31.9 120.2 32.6 119.6 33 118.3 34.2 115.8 36.3 114.5 37.5L114.5 37.4 114.5 37.4 114.5 37.4 114.5 37.4ZM108 21.5C108 24.2 108.1 26.4 106.7 28.9 105.7 30.8 104 32 102.1 32 99.5 32 98 30 98 27 98 21.1 103.1 20 108 20L108 21.5 108 21.5ZM108 21.5"/><path d="M26.5 37.4C26 37.8 25.4 37.9 24.9 37.6 22.7 35.8 22.3 34.9 21.1 33.2 17.4 36.9 14.8 38 10 38 4.4 38 0 34.5 0 27.6 0 22.2 2.9 18.6 7.1 16.8 10.8 15.2 15.8 14.9 19.7 14.5L19.7 13.6C19.7 12 19.9 10.1 18.9 8.8 18.1 7.6 16.5 7.1 15.2 7.1 12.6 7.1 10.3 8.4 9.8 11 9.7 11.6 9.2 12.2 8.6 12.3L2.1 11.6C1.6 11.4 1 11 1.1 10.2 2.6 2.4 9.7 0 16.1 0 19.4 0 23.6 0.9 26.2 3.3 29.4 6.3 29.1 10.4 29.1 14.8L29.1 25.1C29.1 28.2 30.4 29.6 31.6 31.3 32.1 31.9 32.2 32.6 31.6 33 30.3 34.2 27.8 36.3 26.5 37.5L26.5 37.4 26.5 37.4 26.5 37.4 26.5 37.4ZM20 21.5C20 24.2 20.1 26.4 18.7 28.9 17.7 30.8 16 32 14.1 32 11.5 32 10 30 10 27 10 21.1 15.1 20 20 20L20 21.5 20 21.5ZM20 21.5"/></g><g transform="translate(20.000000, 50.000000)"><path d="M133.1 51.1C120.6 60.2 102.5 65 86.9 65 65.1 65 45.4 57.1 30.5 43.9 29.3 42.8 30.4 41.4 31.8 42.2 47.8 51.4 67.7 56.9 88.2 56.9 102.1 56.9 117.3 54.1 131.3 48.3 133.4 47.4 135.1 49.7 133.1 51.1" fill="#0B0B0A"/><path d="M138.3 44.6C136.8 42.6 128 43.7 124 44.1 122.8 44.3 122.6 43.2 123.7 42.5 130.7 37.4 142.2 38.9 143.6 40.6 144.9 42.3 143.2 54 136.6 59.6 135.6 60.4 134.7 60 135.1 58.8 136.6 55.1 139.9 46.7 138.3 44.6" fill="#0B0B0A"/><path d="M125.2 7.2L125.2 2.2C125.2 1.5 125.8 1 126.5 1L148.1 1C148.8 1 149.3 1.5 149.3 2.2L149.3 6.5C149.3 7.2 148.8 8.1 147.7 9.6L136.5 25.9C140.7 25.8 145.1 26.4 148.9 28.6 149.7 29 149.9 29.8 150 30.5L150 35.7C150 36.4 149.2 37.3 148.4 36.8 141.7 33.3 132.9 32.9 125.5 36.9 124.8 37.3 124 36.5 124 35.8L124 30.8C124 30 124 28.6 124.8 27.4L137.8 8.4 126.5 8.4C125.8 8.4 125.2 7.9 125.2 7.2" fill="#0A0B09"/><path d="M44.9 37L38.2 37C37.6 37 37.1 36.5 37 35.9L37 1.9C37 1.3 37.6 0.7 38.3 0.7L44.5 0.7C45.2 0.7 45.7 1.2 45.7 1.9L45.7 6.3 45.9 6.3C47.5 2 50.5 0 54.6 0 58.8 0 61.4 2 63.3 6.3 64.9 2 68.6 0 72.5 0 75.4 0 78.4 1.1 80.3 3.7 82.4 6.6 82 10.7 82 14.4L82 35.8C82 36.5 81.4 37 80.7 37L74 37C73.3 37 72.8 36.4 72.8 35.8L72.8 17.8C72.8 16.4 72.9 12.8 72.6 11.4 72.1 9.1 70.6 8.5 68.7 8.5 67.1 8.5 65.4 9.6 64.7 11.3 64 13 64.1 15.9 64.1 17.8L64.1 35.8C64.1 36.5 63.5 37 62.8 37L56.1 37C55.4 37 54.9 36.4 54.9 35.8L54.9 17.8C54.9 14 55.5 8.4 50.8 8.4 46 8.4 46.2 13.9 46.2 17.8L46.2 35.8C46.2 36.5 45.6 37 44.9 37" fill="#0A0B09"/><path d="M167.9 7C163.3 7 163 13.7 163 17.9 163 22.1 162.9 31 167.9 31 172.8 31 173 23.8 173 19.4 173 16.5 172.9 13.1 172.1 10.3 171.4 7.9 169.9 7 167.9 7L167.9 7 167.9 7 167.9 7ZM167.9 0C177.7 0 183 8.5 183 19.3 183 29.7 177.1 38 167.9 38 158.2 38 153 29.5 153 18.9 153 8.3 158.3 0 167.9 0L167.9 0ZM167.9 0" fill="#0A0B09"/><path d="M195.7 37L189.2 37C188.5 37 188 36.4 188 35.8L188 1.8C188.1 1.2 188.6 0.7 189.3 0.7L195.4 0.7C195.9 0.7 196.4 1.1 196.5 1.7L196.5 6.9 196.7 6.9C198.5 2.2 201.1 0 205.6 0 208.6 0 211.4 1.1 213.3 4 215 6.7 215 11.3 215 14.6L215 35.9C214.9 36.5 214.4 37 213.7 37L207.1 37C206.5 37 206.1 36.5 206 35.9L206 17.5C206 13.8 206.4 8.4 201.9 8.4 200.3 8.4 198.8 9.4 198.1 11.1 197.1 13.1 197 15.2 197 17.5L197 35.8C197 36.5 196.4 37 195.7 37" fill="#0A0B09"/><path d="M114.5 37.4C114 37.8 113.4 37.9 112.9 37.6 110.7 35.8 110.3 34.9 109.1 33.2 105.4 36.9 102.8 38 98 38 92.4 38 88 34.5 88 27.6 88 22.2 90.9 18.6 95.1 16.8 98.8 15.2 103.8 14.9 107.7 14.5L107.7 13.6C107.7 12 107.9 10.1 106.9 8.8 106.1 7.6 104.5 7.1 103.2 7.1 100.6 7.1 98.3 8.4 97.8 11 97.7 11.6 97.2 12.2 96.6 12.3L90.1 11.6C89.6 11.4 89 11 89.1 10.2 90.6 2.4 97.7 0 104.1 0 107.4 0 111.6 0.9 114.2 3.3 117.4 6.3 117.1 10.4 117.1 14.8L117.1 25.1C117.1 28.2 118.4 29.6 119.6 31.3 120.1 31.9 120.2 32.6 119.6 33 118.3 34.2 115.8 36.3 114.5 37.5L114.5 37.4 114.5 37.4 114.5 37.4 114.5 37.4ZM108 21.5C108 24.2 108.1 26.4 106.7 28.9 105.7 30.8 104 32 102.1 32 99.5 32 98 30 98 27 98 21.1 103.1 20 108 20L108 21.5 108 21.5ZM108 21.5" fill="#0A0B09"/><path d="M26.5 37.4C26 37.8 25.4 37.9 24.9 37.6 22.7 35.8 22.3 34.9 21.1 33.2 17.4 36.9 14.8 38 10 38 4.4 38 0 34.5 0 27.6 0 22.2 2.9 18.6 7.1 16.8 10.8 15.2 15.8 14.9 19.7 14.5L19.7 13.6C19.7 12 19.9 10.1 18.9 8.8 18.1 7.6 16.5 7.1 15.2 7.1 12.6 7.1 10.3 8.4 9.8 11 9.7 11.6 9.2 12.2 8.6 12.3L2.1 11.6C1.6 11.4 1 11 1.1 10.2 2.6 2.4 9.7 0 16.1 0 19.4 0 23.6 0.9 26.2 3.3 29.4 6.3 29.1 10.4 29.1 14.8L29.1 25.1C29.1 28.2 30.4 29.6 31.6 31.3 32.1 31.9 32.2 32.6 31.6 33 30.3 34.2 27.8 36.3 26.5 37.5L26.5 37.4 26.5 37.4 26.5 37.4 26.5 37.4ZM20 21.5C20 24.2 20.1 26.4 18.7 28.9 17.7 30.8 16 32 14.1 32 11.5 32 10 30 10 27 10 21.1 15.1 20 20 20L20 21.5 20 21.5ZM20 21.5" fill="#0A0B09"/></g></g></svg>