<svg xmlns="http://www.w3.org/2000/svg" width="256" height="160" viewBox="0" version="1.1"><defs><linearGradient x1="50%" y1="0%" x2="50%" y2="100%" id="lg1"><stop stop-color="#008FBB" offset="0"/><stop stop-color="#0065A0" offset="100"/></linearGradient></defs><g stroke="none" stroke-width="1" fill="none" fill-rule="evenodd"><rect d="M0,0 L0,160 L256,160 L256,0 L0,0 Z M0,0" fill="url(#lg1)" x="0" y="0" width="256" height="160"/><rect d="M0,0 L0,2 L256,2 L256,0 L0,0 Z M0,0" fill="#BFE2ED" x="0" y="0" width="256" height="2"/><path d="M18.7 75L29.3 75 31.7 69.1 37.1 69.1 39.5 75 60.4 75 60.4 70.5 62.3 75 73.2 75 75 70.4 75 75 127.1 75 127.1 65.3 128.1 65.3C128.8 65.3 129 65.4 129 66.6L129 75 155.9 75 155.9 72.7C158.1 73.9 161.4 75 165.9 75L177.2 75 179.6 69.1 185 69.1 187.4 75 209.2 75 209.2 69.4 212.5 75 230 75 230 38 212.7 38 212.7 42.4 210.3 38 192.5 38 192.5 42.4 190.3 38 166.3 38C162.3 38 158.7 38.6 155.9 40.2L155.9 38 139.3 38 139.3 40.2C137.5 38.5 135 38 132.3 38L71.8 38 67.8 47.6 63.6 38 44.5 38 44.5 42.4 42.4 38 26.2 38 18.7 55.6 10 75 10 75 18.7 75 18.7 75ZM225 70L216.1 70 204.3 49.7 204.3 70 191.5 70 189.1 64 176.1 64 173.7 70 166.4 70C163.4 70 159.5 69.3 157.3 67 155.1 64.7 154 61.6 154 56.7 154 52.7 154.7 49 157.4 46.1 159.4 44 162.6 43 166.9 43L172.9 43 172.9 48.8 167 48.8C164.7 48.8 163.4 49.1 162.2 50.4 161.1 51.5 160.4 53.7 160.4 56.5 160.4 59.4 160.9 61.5 162.1 62.8 163.1 63.9 164.8 64.2 166.5 64.2L169.3 64.2 178.1 43 187.5 43 198.1 68.5 198.1 43 207.6 43 218.6 61.8 218.6 43 225 43 225 43 225 70 225 70ZM150 70L144 70 144 43 150 43 150 43 150 70 150 70ZM141 50.3C141 54.6 138.2 56.8 136.6 57.5 138 58 139.1 59 139.7 59.7 140.6 61.1 140.7 62.3 140.7 64.7L140.7 70 134.4 70 134.4 66.6C134.4 65 134.6 62.6 133.4 61.3 132.5 60.4 131.1 60.2 128.9 60.2L122.2 60.2 122.2 70 116 70 116 43 130.3 43C133.5 43 135.8 43.1 137.9 44.3 139.8 45.5 141 47.3 141 50.3L141 50.3ZM112 70L91 70 91 43 112 43 112 48.6 97.3 48.6 97.3 53.5 111.6 53.5 111.6 59 97.3 59 97.3 64.4 112 64.4 112 64.4 112 70 112 70ZM86 70L79.6 70 79.6 48.9 70.6 70 65.1 70 56.1 48.8 56.1 70 43.5 70 41.1 64 28.2 64 25.7 70 19 70 30.1 43 39.4 43 49.9 68.6 49.9 43 60.1 43 68.2 61.3 75.7 43 86 43 86 43 86 70 86 70ZM187 59L182.5 48 178 59 178 59 187 59 187 59ZM132.7 54.4C131.8 55 130.8 55 129.6 55L122 55 122 49 129.7 49C130.8 49 131.9 49 132.7 49.5 133.5 49.9 134 50.7 134 51.9 134 53.1 133.5 54 132.7 54.4L132.7 54.4ZM39 59L34.5 48 30 59 39 59ZM39 59" fill="#0065A0"/><path d="M18.7 77L29.3 77 31.7 71.1 37.1 71.1 39.5 77 60.4 77 60.4 72.5 62.3 77 73.2 77 75 72.4 75 77 127.1 77 127.1 67.3 128.1 67.3C128.8 67.3 129 67.4 129 68.6L129 77 155.9 77 155.9 74.7C158.1 75.9 161.4 77 165.9 77L177.2 77 179.6 71.1 185 71.1 187.4 77 209.2 77 209.2 71.4 212.5 77 230 77 230 40 212.7 40 212.7 44.4 210.3 40 192.5 40 192.5 44.4 190.3 40 166.3 40C162.3 40 158.7 40.6 155.9 42.2L155.9 40 139.3 40 139.3 42.2C137.5 40.5 135 40 132.3 40L71.8 40 67.8 49.6 63.6 40 44.5 40 44.5 44.4 42.4 40 26.2 40 18.7 57.6 10 77 10 77 18.7 77 18.7 77ZM225 72L216.1 72 204.3 51.7 204.3 72 191.5 72 189.1 66 176.1 66 173.7 72 166.4 72C163.4 72 159.5 71.3 157.3 69 155.1 66.7 154 63.6 154 58.7 154 54.7 154.7 51 157.4 48.1 159.4 46 162.6 45 166.9 45L172.9 45 172.9 50.8 167 50.8C164.7 50.8 163.4 51.1 162.2 52.4 161.1 53.5 160.4 55.7 160.4 58.5 160.4 61.4 160.9 63.5 162.1 64.8 163.1 65.9 164.8 66.2 166.5 66.2L169.3 66.2 178.1 45 187.5 45 198.1 70.5 198.1 45 207.6 45 218.6 63.8 218.6 45 225 45 225 45 225 72 225 72ZM150 72L144 72 144 45 150 45 150 45 150 72 150 72ZM141 52.3C141 56.6 138.2 58.8 136.6 59.5 138 60 139.1 61 139.7 61.7 140.6 63.1 140.7 64.3 140.7 66.7L140.7 72 134.4 72 134.4 68.6C134.4 67 134.6 64.6 133.4 63.3 132.5 62.4 131.1 62.2 128.9 62.2L122.2 62.2 122.2 72 116 72 116 45 130.3 45C133.5 45 135.8 45.1 137.9 46.3 139.8 47.5 141 49.3 141 52.3L141 52.3ZM112 72L91 72 91 45 112 45 112 50.6 97.3 50.6 97.3 55.5 111.6 55.5 111.6 61 97.3 61 97.3 66.4 112 66.4 112 66.4 112 72 112 72ZM86 72L79.6 72 79.6 50.9 70.6 72 65.1 72 56.1 50.8 56.1 72 43.5 72 41.1 66 28.2 66 25.7 72 19 72 30.1 45 39.4 45 49.9 70.6 49.9 45 60.1 45 68.2 63.3 75.7 45 86 45 86 45 86 72 86 72ZM187 61L182.5 50 178 61 178 61 187 61 187 61ZM132.7 56.4C131.8 57 130.8 57 129.6 57L122 57 122 51 129.7 51C130.8 51 131.9 51 132.7 51.5 133.5 51.9 134 52.7 134 53.9 134 55.1 133.5 56 132.7 56.4L132.7 56.4ZM39 61L34.5 50 30 61 39 61ZM39 61" fill="#FFFFFF"/><path d="M160 96.9C160 98 159.5 98.9 158.7 99.4 157.9 100 156.8 100 155.6 100L148 100 148 94 155.7 94C156.8 94 157.9 94 158.7 94.5 159.5 94.9 160 95.7 160 96.9L160 96.9ZM132 97.4C132 99.7 130.5 101 128.1 101L120 101 120 94 128.2 94C130.4 94 132 95 132 97.4L132 97.4ZM104 101.3L114 91 114 112 114 112 104 101.3 104 101.3ZM89.3 94L96 101.5 89 109 74 109 74 103.9 87.4 103.9 87.4 98.7 74 98.7 74 94 74 94 89.3 94 89.3 94ZM239.8 112.4C238.1 114.1 235.4 115 232 115L219.9 115 219.9 109.2 231.9 109.2C233.1 109.2 234 109 234.5 108.5 234.9 108.1 235.2 107.5 235.2 106.8 235.2 106 234.9 105.4 234.4 105 234 104.6 233.3 104.4 232.2 104.4 226.3 104.2 219 104.6 219 96 219 92.1 221.4 88 228 88L240.2 88 240.2 93.7 229.1 93.7C227.9 93.7 227.2 93.8 226.5 94.2 225.9 94.7 225.6 95.3 225.6 96.2 225.6 97.2 226.2 97.9 227 98.2 227.6 98.4 228.3 98.5 229.4 98.5L232.8 98.6C236.2 98.7 238.5 99.3 239.9 100.8 240.1 101 240.3 101.2 240.5 101.4 240.4 101.3 240.3 101.2 240.3 101.1 241.3 102.6 242 104.5 242 106.5 242 108.8 241.1 110.8 239.8 112.4L239.8 112.4ZM207.1 115L194.7 115 194.7 109.2 207 109.2C208.2 109.2 209.1 109 209.6 108.5 210 108.1 210.3 107.5 210.3 106.8 210.3 106 210 105.4 209.6 105 209.1 104.6 208.4 104.4 207.3 104.4 201.4 104.2 194 104.6 194 96 194 92.1 196.4 88 203 88L215.7 88 215.7 93.7 204.1 93.7C203 93.7 202.2 93.8 201.6 94.2 200.9 94.7 200.6 95.3 200.6 96.2 200.6 97.2 201.2 97.9 202 98.2 202.7 98.4 203.4 98.5 204.5 98.5L207.9 98.6C211.3 98.7 213.7 99.3 215.1 100.8 216.3 102.1 217 103.7 217 106.5 217 112.3 213.4 115 207.1 115L207.1 115ZM191 93.6L176.3 93.6 176.3 98.5 190.6 98.5 190.6 104 176.3 104 176.3 109.4 191 109.4 191 115 170 115 170 88 191 88 191 88 191 93.6 191 93.6ZM165.6 104.7C166.5 106 166.6 107.3 166.7 109.6L166.7 115 160.4 115 160.4 111.6C160.4 110 160.6 107.6 159.4 106.3 158.5 105.4 157.1 105.1 154.9 105.1L148.2 105.1 148.2 115 142 115 142 88 156.3 88C159.5 88 161.8 88.1 163.8 89.3 165.8 90.5 167 92.2 167 95.3 167 99.6 164.2 101.8 162.6 102.5 164 103 165.1 103.9 165.6 104.7L165.6 104.7ZM128.2 105.9L120.4 105.9 120.4 115 108.3 115 100.6 106.1 92.7 115 68 115 68 88 93 88 100.7 96.9 108.6 88 128.5 88C133.4 88 139 89.4 139 96.9 139 104.4 133.6 105.9 128.2 105.9L128.2 105.9ZM244 100L244 83 239.7 83 228.4 83C224.9 83 222.3 83.8 220.6 85.2L220.6 83 203.5 83C200.7 83 197.5 83.7 196 85.2L196 83 165.5 83 165.5 85.2C163.1 83.4 159 83 157.1 83L137 83 137 85.2C135 83.3 130.8 83 128.2 83L105.6 83 100.5 88.7 95.6 83 62 83 62 120 95 120 100.3 114.2 105.3 120 125.7 120 125.7 111.3 127.7 111.3C130.4 111.3 133.6 111.2 136.4 110L136.4 120 153.2 120 153.2 110.3 154 110.3C155 110.3 155.1 110.4 155.1 111.4L155.1 120 206.1 120C209.3 120 212.7 119.1 214.6 117.6L214.6 120 230.8 120C234.1 120 237.4 119.5 239.9 118.3L239.9 118.2C243.6 115.9 246 111.7 246 107 246 104.4 245.3 102 244 100L244 100ZM244 100" fill="#0065A0"/><path d="M160 98.9C160 100 159.5 100.9 158.7 101.4 157.9 102 156.8 102 155.6 102L148 102 148 96 155.7 96C156.8 96 157.9 96 158.7 96.5 159.5 96.9 160 97.7 160 98.9L160 98.9ZM132 99.4C132 101.7 130.5 103 128.1 103L120 103 120 96 128.2 96C130.4 96 132 97 132 99.4L132 99.4ZM104 103.3L114 93 114 114 114 114 104 103.3 104 103.3ZM89.3 96L96 103.5 89 111 74 111 74 105.9 87.4 105.9 87.4 100.7 74 100.7 74 96 74 96 89.3 96 89.3 96ZM239.8 114.4C238.1 116.1 235.4 117 232 117L219.9 117 219.9 111.2 231.9 111.2C233.1 111.2 234 111 234.5 110.5 234.9 110.1 235.2 109.5 235.2 108.8 235.2 108 234.9 107.4 234.4 107 234 106.6 233.3 106.4 232.2 106.4 226.3 106.2 219 106.6 219 98 219 94.1 221.4 90 228 90L240.2 90 240.2 95.7 229.1 95.7C227.9 95.7 227.2 95.8 226.5 96.2 225.9 96.7 225.6 97.3 225.6 98.2 225.6 99.2 226.2 99.9 227 100.2 227.6 100.4 228.3 100.5 229.4 100.5L232.8 100.6C236.2 100.7 238.5 101.3 239.9 102.8 240.1 103 240.3 103.2 240.5 103.4 240.4 103.3 240.3 103.2 240.3 103.1 241.3 104.6 242 106.5 242 108.5 242 110.8 241.1 112.8 239.8 114.4L239.8 114.4ZM207.1 117L194.7 117 194.7 111.2 207 111.2C208.2 111.2 209.1 111 209.6 110.5 210 110.1 210.3 109.5 210.3 108.8 210.3 108 210 107.4 209.6 107 209.1 106.6 208.4 106.4 207.3 106.4 201.4 106.2 194 106.6 194 98 194 94.1 196.4 90 203 90L215.7 90 215.7 95.7 204.1 95.7C203 95.7 202.2 95.8 201.6 96.2 200.9 96.7 200.6 97.3 200.6 98.2 200.6 99.2 201.2 99.9 202 100.2 202.7 100.4 203.4 100.5 204.5 100.5L207.9 100.6C211.3 100.7 213.7 101.3 215.1 102.8 216.3 104.1 217 105.7 217 108.5 217 114.3 213.4 117 207.1 117L207.1 117ZM191 95.6L176.3 95.6 176.3 100.5 190.6 100.5 190.6 106 176.3 106 176.3 111.4 191 111.4 191 117 170 117 170 90 191 90 191 90 191 95.6 191 95.6ZM165.6 106.7C166.5 108 166.6 109.3 166.7 111.6L166.7 117 160.4 117 160.4 113.6C160.4 112 160.6 109.6 159.4 108.3 158.5 107.4 157.1 107.1 154.9 107.1L148.2 107.1 148.2 117 142 117 142 90 156.3 90C159.5 90 161.8 90.1 163.8 91.3 165.8 92.5 167 94.2 167 97.3 167 101.6 164.2 103.8 162.6 104.5 164 105 165.1 105.9 165.6 106.7L165.6 106.7ZM128.2 107.9L120.4 107.9 120.4 117 108.3 117 100.6 108.1 92.7 117 68 117 68 90 93 90 100.7 98.9 108.6 90 128.5 90C133.4 90 139 91.4 139 98.9 139 106.4 133.6 107.9 128.2 107.9L128.2 107.9ZM244 102L244 85 239.7 85 228.4 85C224.9 85 222.3 85.8 220.6 87.2L220.6 85 203.5 85C200.7 85 197.5 85.7 196 87.2L196 85 165.5 85 165.5 87.2C163.1 85.4 159 85 157.1 85L137 85 137 87.2C135 85.3 130.8 85 128.2 85L105.6 85 100.5 90.7 95.6 85 62 85 62 122 95 122 100.3 116.2 105.3 122 125.7 122 125.7 113.3 127.7 113.3C130.4 113.3 133.6 113.2 136.4 112L136.4 122 153.2 122 153.2 112.3 154 112.3C155 112.3 155.1 112.4 155.1 113.4L155.1 122 206.1 122C209.3 122 212.7 121.1 214.6 119.6L214.6 122 230.8 122C234.1 122 237.4 121.5 239.9 120.3L239.9 120.2C243.6 117.9 246 113.7 246 109 246 106.4 245.3 104 244 102L244 102ZM244 102" fill="#FFFFFF"/></g></svg>