<svg xmlns="http://www.w3.org/2000/svg" width="256" height="160" viewBox="0" version="1.1"><defs><linearGradient x1="50%" y1="0%" x2="50%" y2="100%" id="lg1"><stop stop-color="#FAFAFA" offset="0%"/><stop stop-color="#E0E0E0" offset="100%"/></linearGradient><linearGradient x1="50%" y1="100%" x2="50%" y2="0%" id="lg2"><stop stop-color="#FFA144" offset="0%"/><stop stop-color="#C25900" offset="100%"/></linearGradient></defs><g stroke="none" stroke-width="1" fill="none" fill-rule="evenodd"><path d="M0 160L256 160 256 0 0 0 0 0 0 160 0 160ZM0 160" fill="url(#lg1)"/><path d="M-20 79.5C-20 141.1 29.9 191 91.5 191L91.5 191C153.1 191 203 141.1 203 79.5L203 79.5C203 17.9 153.1-32 91.5-32L91.5-32C29.9-32-20 17.9-20 79.5" fill="url(#lg2)"/><path d="M91.5 191C153.1 191 203 141.1 203 79.5 203 17.9 153.1-32 91.5-32 29.9-32-20 17.9-20 79.5 -20 141.1 29.9 191 91.5 191 91.5 191 29.9 191 91.5 191L91.5 191 91.5 191ZM91.5 191" stroke="#FA9600" stroke-width="20"/><path d="M105.6 35L105.5 14.4 93.1 14.3 93.2 34.5C89.9 34.4 86.6 34.5 83.3 34.6L83.2 14.3 70.8 14.3 70.9 34.9C68.2 35 65.5 35 63 35L45.8 34.9 45.9 48.3C45.9 48.3 55 48.2 54.9 48.3 59.9 48.3 61.6 51.3 62.1 53.9L62.1 77.4C62.5 77.4 62.9 77.4 63.4 77.5 63 77.5 62.6 77.5 62.1 77.5L62.2 110.5C62 112.1 61.1 114.6 57.6 114.6 57.7 114.8 48.6 114.6 48.6 114.6L46.1 129.6 62.3 129.7C65.3 129.7 68.3 129.7 71.2 129.8L71.3 150.7 83.7 150.7 83.6 130C87 130.1 90.3 130.2 93.5 130.2L93.6 150.8 106 150.8 105.9 129.9C126.8 128.8 141.4 123.5 143.2 103.7 144.6 87.7 137.1 80.5 125.3 77.6 132.4 73.9 136.9 67.4 135.8 56.5 134.4 41.6 121.7 36.5 105.6 35M118.4 102.8C118.7 119.4 91.8 117.1 83.2 117L82.8 87.5C91.3 87.7 118.2 85.5 118.4 102.8 118.4 102.8 118.2 85.5 118.4 102.8M115.1 60.5C115 74.8 92 73.3 84.7 73.3L84.8 47.9C92.1 47.8 115.1 45.4 115.1 60.5 115.1 60.5 115.1 45.4 115.1 60.5" fill="#623C0F"/><path d="M105.6 33L105.5 12.4 93.1 12.3 93.2 32.5C89.9 32.4 86.6 32.5 83.3 32.6L83.2 12.3 70.8 12.3 70.9 32.9C68.2 33 65.5 33 63 33L45.8 32.9 45.9 46.3C45.9 46.3 55 46.2 54.9 46.3 59.9 46.3 61.6 49.3 62.1 51.9L62.1 75.4C62.5 75.4 62.9 75.4 63.4 75.5 63 75.5 62.6 75.5 62.1 75.5L62.2 108.5C62 110.1 61.1 112.6 57.6 112.6 57.7 112.8 48.6 112.6 48.6 112.6L46.1 127.6 62.3 127.7C65.3 127.7 68.3 127.7 71.2 127.8L71.3 148.7 83.7 148.7 83.6 128C87 128.1 90.3 128.2 93.5 128.2L93.6 148.8 106 148.8 105.9 127.9C126.8 126.8 141.4 121.5 143.2 101.7 144.6 85.7 137.1 78.5 125.3 75.6 132.4 71.9 136.9 65.4 135.8 54.5 134.4 39.6 121.7 34.5 105.6 33M118.4 100.8C118.7 117.4 91.8 115.1 83.2 115L82.8 85.5C91.3 85.7 118.2 83.5 118.4 100.8 118.4 100.8 118.2 83.5 118.4 100.8M115.1 58.5C115 72.8 92 71.3 84.7 71.3L84.8 45.9C92.1 45.8 115.1 43.4 115.1 58.5 115.1 58.5 115.1 43.4 115.1 58.5" fill="#FFFFFF"/></g></svg>