<svg xmlns="http://www.w3.org/2000/svg" width="256" height="160" viewBox="0" version="1.1"><defs><linearGradient x1="50%" y1="0%" x2="50%" y2="100%" id="lg1"><stop stop-color="#FAFAFA" offset="0"/><stop stop-color="#E0E0E0" offset="100"/></linearGradient></defs><g stroke="none" stroke-width="1" fill="none" fill-rule="evenodd"><rect d="M0,0 L0,160 L256,160 L256,0 L0,0 Z M0,0" fill="url(#lg1)" x="0" y="0" width="256" height="160"/><path d="M139.1 105.4C143.3 105.4 147.4 104.5 151.5 103.3 153.4 102.7 155.4 101.9 157.1 100.9 159 99.9 161 99 162.7 97.7 166 95.2 169.5 92.6 172 89.2 173.2 87.6 174.6 85.9 175.6 84.2 176.6 82.3 177.5 80.4 178.3 78.5 179.1 76.5 179.7 74.5 180.1 72.4 180.6 70.4 180.7 68.2 180.9 66.1 181.1 64.2 180.8 62.2 180.6 60.2 180.4 58.2 180.1 56 179.5 54.1 178.9 52.1 178.1 50.2 177.3 48.3 176.5 46.4 175.6 44.5 174.4 42.9 171.8 39.5 169.3 36.1 165.9 33.5 159.2 28.5 151.5 24.8 143.2 24.1 139.1 23.7 135 23.8 130.9 23.8L116.9 23.8C112.7 23.8 108.6 24.9 104.7 26.1 100.7 27.3 96.9 29.5 93.7 31.9 86.9 37 81.8 44 79.4 52.1 77 60.1 76.9 68.6 79.3 76.7 81.7 84.6 86.8 91.8 93.4 96.8 96.7 99.2 100.1 101.2 104 102.7 107.9 104.3 112 105 116.2 105.4 117.5 105.5 118.8 105.4 120 105.4L127.2 105.4C131.1 105.4 135.1 105.4 139.1 105.4 139.1 105.4 135.1 105.4 139.1 105.4L139.1 105.4 139.1 105.4ZM139.1 105.4" fill="#FFFFFF"/><path d="M139.1 103.4C143.3 103.4 147.4 102.5 151.5 101.3 153.4 100.7 155.4 99.9 157.1 98.9 159 97.9 161 97 162.7 95.7 166 93.2 169.5 90.6 172 87.2 173.2 85.6 174.6 83.9 175.6 82.2 176.6 80.3 177.5 78.4 178.3 76.5 179.1 74.5 179.7 72.5 180.1 70.4 180.6 68.4 180.7 66.2 180.9 64.1 181.1 62.2 180.8 60.2 180.6 58.2 180.4 56.2 180.1 54 179.5 52.1 178.9 50.1 178.1 48.2 177.3 46.3 176.5 44.4 175.6 42.5 174.4 40.9 171.8 37.5 169.3 34.1 165.9 31.5 159.2 26.5 151.5 22.8 143.2 22.1 139.1 21.7 135 21.8 130.9 21.8L116.9 21.8C112.7 21.8 108.6 22.9 104.7 24.1 100.7 25.3 96.9 27.5 93.7 29.9 86.9 35 81.8 42 79.4 50.1 77 58.1 76.9 66.6 79.3 74.7 81.7 82.6 86.8 89.8 93.4 94.8 96.7 97.2 100.1 99.2 104 100.7 107.9 102.3 112 103 116.2 103.4 117.5 103.5 118.8 103.4 120 103.4L127.2 103.4C131.1 103.4 135.1 103.4 139.1 103.4 139.1 103.4 135.1 103.4 139.1 103.4L139.1 103.4 139.1 103.4ZM139.1 103.4" fill="#007BB9"/><path d="M118.9 25.1C117.9 25.2 116.8 25.3 115.8 25.3 114.7 25.3 113.6 25.6 112.5 25.7 110.5 25.9 108.5 26.6 106.6 27.2 102.7 28.5 99 30.6 95.8 33.1 89.2 38.2 84.3 45.6 82.5 53.7 81.6 57.9 81.2 62.1 81.6 66.4 82 70.6 83.3 74.7 85 78.5 86.7 82.4 89.3 85.4 92 88.6 93.4 90.2 95.3 91.4 96.9 92.8 98.3 94 100.2 95.1 101.9 95.9 103.9 96.7 105.8 97.5 107.8 98.2 109.8 98.9 111.9 99.1 114.1 99.6 115 99.8 116.1 99.7 117.1 99.8 118.1 99.9 119.2 100 120.3 99.9 122.4 99.6 124.4 99.5 126.6 99.1 134.9 97.4 142.3 92.8 147.8 86.3 150.4 83.3 152.7 79.6 154 75.7 155.3 71.7 156.4 67.6 156.4 63.5 156.4 59.2 155.9 54.9 154.5 50.8 153.9 48.9 153.1 47 152.1 45.2 151.7 44.3 151.1 43.4 150.6 42.5 150.1 41.7 149.4 41 148.9 40.2 148.3 39.2 147.5 38.5 146.8 37.7 146.2 36.9 145.5 36.1 144.7 35.4 143.1 34 141.4 32.5 139.6 31.3 137.9 30.3 136.2 29.3 134.3 28.5 133.4 28.1 132.5 27.6 131.5 27.3 130.5 27 129.5 26.7 128.4 26.3 125.4 25.3 122.1 25.4 118.9 25.1" fill="#FFFFFF"/><path d="M110.4 84.7C110.3 84.7 110.3 84.7 110.3 84.6L110.2 84.6 110.2 84.6 110.1 84.6C110.1 84.5 110.1 84.5 110 84.5L110 84.5 109.9 84.5C109.9 84.4 109.9 84.4 109.8 84.4L109.8 84.4 109.7 84.4 109.7 84.4C109.6 84.4 109.6 84.4 109.6 84.3L109.5 84.3 109.5 84.3 109.4 84.3C109.4 84.2 109.4 84.2 109.3 84.2L109.3 84.2 109.2 84.2 109.2 84.2C109.2 84.2 109.1 84.1 109.1 84.1L109.1 84.1 109 84.1 109 84.1C108.9 84.1 108.9 84.1 108.9 84L108.8 84 108.8 84 108.7 83.9 108.7 83.9 108.6 83.9 108.6 83.9C108.6 83.9 108.5 83.8 108.5 83.8L108.5 83.8 108.4 83.8 108.4 83.8C108.3 83.8 108.3 83.8 108.3 83.7L108.2 83.7 108.2 83.7 108.1 83.7 108.1 83.6 108 83.6 108 83.6C107.9 83.6 107.9 83.6 107.9 83.5L107.8 83.5 107.8 83.5 107.7 83.4 107.7 83.4 107.6 83.4 107.6 83.4C107.6 83.4 107.5 83.3 107.5 83.3L107.5 83.3 107.4 83.3 107.4 83.3C107.4 83.3 107.3 83.2 107.3 83.2L107.3 83.2 107.2 83.2C107.2 83.1 107.2 83.1 107.1 83.1L107.1 83.1C107 83.1 107 83.1 107 83L106.9 83 106.9 83C106.8 83 106.8 83 106.8 82.9L106.8 82.9 106.7 82.9 106.7 82.9C106.7 82.8 106.7 82.8 106.6 82.8L106.6 82.8 106.5 82.8C106.5 82.7 106.5 82.7 106.4 82.7L106.4 82.7C106.4 82.7 106.3 82.6 106.3 82.6L106.2 82.6C106.2 82.5 106.2 82.5 106.1 82.5L106.1 82.5C106.1 82.5 106 82.4 106 82.4L106 82.4 105.9 82.4 105.9 82.4C105.9 82.3 105.9 82.3 105.8 82.3L105.8 82.3C105.7 82.3 105.7 82.3 105.7 82.2L105.6 82.2 105.6 82.2C105.6 82.1 105.6 82.1 105.5 82.1L105.5 82.1C105.4 82.1 105.4 82.1 105.4 82L105.3 82 105.3 82C105.3 81.9 105.3 81.9 105.2 81.9L105.2 81.9C105.2 81.9 105.1 81.8 105.1 81.8L105.1 81.8 105 81.8C105 81.7 105 81.7 104.9 81.7L104.9 81.7C104.9 81.7 104.8 81.6 104.8 81.6L104.8 81.6C104.7 81.6 104.7 81.6 104.7 81.5L104.6 81.5 104.6 81.5C104.6 81.4 104.6 81.4 104.5 81.4L104.5 81.4C104.5 81.4 104.4 81.3 104.4 81.3L104.4 81.3C104.3 81.3 104.3 81.3 104.3 81.2L104.3 81.2 104.2 81.2C104.2 81.1 104.2 81.1 104.1 81.1L104.1 81.1C104.1 81 104.1 81 104 81L104 81C104 81 103.9 80.9 103.9 80.9L103.9 80.9C103.9 80.8 103.9 80.8 103.8 80.8L103.8 80.8C103.7 80.8 103.7 80.8 103.7 80.7L103.7 80.7 103.6 80.7 103.6 80.7C103.6 80.6 103.6 80.6 103.5 80.6L103.5 80.6C103.5 80.5 103.5 80.5 103.4 80.5L103.4 80.5C103.4 80.4 103.4 80.4 103.3 80.4L103.3 80.4C103.2 80.4 103.2 80.4 103.2 80.3L103.2 80.3C103.2 80.3 103.1 80.2 103.1 80.2L103.1 80.2C103 80.2 103 80.2 103 80.1L102.9 80.1 102.9 80 102.8 80 102.8 80C102.8 79.9 102.8 79.9 102.7 79.9L102.7 79.9 102.7 79.8 102.6 79.8C102.6 79.7 102.6 79.7 102.5 79.7L102.5 79.7C102.5 79.6 102.5 79.6 102.4 79.6L102.4 79.6C102.4 79.5 102.4 79.5 102.3 79.5L102.3 79.5C102.3 79.4 102.3 79.4 102.2 79.4L102.2 79.4C102.2 79.3 102.2 79.3 102.1 79.3L102.1 79.3C102.1 79.2 102.1 79.2 102 79.2L102 79.2C102 79.1 102 79.1 101.9 79.1L101.9 79.1C101.9 79 101.9 79 101.8 79L101.8 79C101.8 78.9 101.8 78.9 101.7 78.9L101.7 78.9C101.7 78.8 101.7 78.8 101.6 78.8L101.6 78.8C101.6 78.7 101.6 78.7 101.5 78.7L101.5 78.7 101.5 78.6 101.4 78.6 101.4 78.5 101.3 78.5 101.3 78.4 101.3 78.4C101.2 78.4 101.2 78.4 101.2 78.3L101.2 78.3C101.1 78.3 101.1 78.3 101.1 78.2L101.1 78.2 101 78.1 101 78.1 100.9 78 100.9 78C100.9 77.9 100.9 77.9 100.8 77.9L100.8 77.9C100.8 77.8 100.8 77.8 100.7 77.8L100.7 77.8 100.7 77.7 100.6 77.7 100.6 77.6 100.6 77.6C100.5 77.6 100.5 77.6 100.5 77.5L100.5 77.5C100.5 77.4 100.5 77.4 100.4 77.4L100.4 77.4C100.4 77.3 100.4 77.3 100.3 77.3L100.3 77.3C100.3 77.2 100.3 77.2 100.2 77.2L100.2 77.2C100.2 77.1 100.2 77.1 100.1 77.1L100.1 77 100.1 77C100 77 100 77 100 76.9L100 76.9C100 76.8 100 76.8 99.9 76.8L99.9 76.8C99.9 76.7 99.9 76.7 99.8 76.7L99.8 76.7 99.8 76.6 99.8 76.6C99.8 76.6 99.7 76.5 99.7 76.5L99.7 76.5C99.7 76.4 99.7 76.4 99.6 76.4L99.6 76.3 99.6 76.3 99.5 76.3C99.5 76.2 99.5 76.1 99.4 76.1L99.4 76.1C99.3 76 99.4 76 99.3 75.9L99.3 75.9C99.3 75.9 99.2 75.8 99.2 75.8L99.2 75.8 99.2 75.7 99.1 75.7 99.1 75.6 99.1 75.6 99 75.5 99 75.5 99 75.4 98.9 75.4 98.9 75.3 98.9 75.3C98.9 75.2 98.9 75.2 98.8 75.2L98.8 75.2 98.8 75.1 98.8 75.1C98.7 75.1 98.7 75.1 98.7 75L98.7 75C98.7 74.9 98.7 74.9 98.6 74.9L98.6 74.8 98.6 74.8C98.6 74.7 98.6 74.7 98.5 74.7L98.5 74.7 98.5 74.6C98.4 74.6 98.4 74.6 98.4 74.5L98.4 74.5C98.4 74.4 98.4 74.4 98.3 74.4L98.3 74.3 98.3 74.3 98.2 74.2 98.2 74.2 98.2 74.1 98.2 74.1 98.1 74 98.1 74 98.1 73.9C98 73.9 98 73.9 98 73.8L98 73.8 98 73.7C97.9 73.7 97.9 73.7 97.9 73.6L97.9 73.6C97.9 73.5 97.9 73.5 97.8 73.5L97.8 73.4 97.8 73.4C97.8 73.3 97.8 73.3 97.7 73.3L97.7 73.3 97.7 73.2 97.7 73.2C97.7 73.1 97.7 73.1 97.6 73.1L97.6 73 97.6 73C97.6 72.9 97.6 72.9 97.5 72.9L97.5 72.8 97.5 72.8C97.5 72.7 97.5 72.7 97.4 72.7L97.4 72.7 97.4 72.6 97.4 72.6C97.4 72.5 97.4 72.5 97.3 72.5L97.3 72.5 97.3 72.4 97.3 72.4C97.3 72.3 97.3 72.3 97.2 72.3L97.2 72.2 97.2 72.2 97.2 72.1C97.1 72.1 97.1 72.1 97.1 72L97.1 71.9 97.1 71.9C97.1 71.8 97.1 71.8 97 71.8L97 71.8 97 71.7 97 71.7C97 71.6 97 71.6 96.9 71.6L96.9 71.5 96.9 71.5 96.9 71.4 96.9 71.4 96.8 71.3 96.8 71.3 96.8 71.2C96.8 71.1 96.8 71.1 96.7 71.1L96.7 71 96.7 71 96.7 70.9 96.7 70.9 96.6 70.8 96.6 70.8 96.6 70.7 96.6 70.7 96.6 70.6 96.5 70.5 96.5 70.5 96.5 70.4 96.5 70.4 96.5 70.3C96.4 70.3 96.4 70.3 96.4 70.2L96.4 70.2 96.4 70.1 96.4 70C96.3 70 96.3 70 96.3 69.9L96.3 69.9 96.3 69.8 96.3 69.8C96.2 69.7 96.3 69.7 96.2 69.6L96.2 69.6 96.2 69.5 96.2 69.5 96.2 69.4 96.1 69.3 96.1 69.2 96.1 69.2 96.1 69.1 96.1 69.1C96.1 69 96.1 69 96 69L96 69 96 68.8 96 68.8 96 68.7 95.9 68.6 95.9 68.5 95.9 68.4 95.9 68.4C95.9 68.3 95.9 68.2 95.8 68.2L95.8 68.1 95.8 68.1C95.8 67.9 95.8 67.8 95.7 67.8L95.7 67.7 95.7 67.5C95.7 67.4 95.7 67.3 95.6 67.3L95.6 67C95.6 66.9 95.6 66.8 95.5 66.8L95.5 66.6C95.5 66.1 95.3 65.6 95.3 65 95.3 64.1 95.2 62.9 95.2 61.9 95.2 60.5 95.3 59.2 95.6 58 95.6 57.7 95.6 57.7 95.7 57.5L95.7 57.4C95.7 57.3 95.7 57.2 95.8 57.2L95.8 57.1 95.8 57 95.8 56.9 95.9 56.8 95.9 56.7 95.9 56.6 95.9 56.5 95.9 56.5C96 56.5 96 56.4 96 56.3L96 56.3 96 56.2 96 56.1C96.1 56.1 96.1 56.1 96.1 56L96.1 56 96.1 55.9 96.1 55.9 96.1 55.8C96.1 55.8 96.2 55.7 96.2 55.7L96.2 55.6 96.2 55.6 96.2 55.5 96.2 55.5C96.3 55.4 96.2 55.4 96.3 55.3L96.3 55.3 96.3 55.2 96.3 55.1C96.4 55.1 96.4 55.1 96.4 55L96.4 55 96.4 54.9 96.4 54.9C96.5 54.8 96.4 54.8 96.5 54.7L96.5 54.7 96.5 54.6 96.5 54.6C96.5 54.5 96.5 54.5 96.6 54.5L96.6 54.4 96.6 54.4 96.6 54.3 96.6 54.3C96.6 54.3 96.7 54.2 96.7 54.2L96.7 54.1 96.7 54.1 96.7 54 96.7 54C96.8 54 96.8 54 96.8 53.9L96.8 53.9 96.8 53.8 96.8 53.8C96.8 53.8 96.9 53.7 96.9 53.7L96.9 53.7 96.9 53.6 96.9 53.6 96.9 53.5C97 53.5 97 53.5 97 53.4L97 53.3 97 53.3C97 53.3 97.1 53.2 97.1 53.2L97.1 53.2 97.1 53.1 97.1 53.1C97.1 53 97.1 53 97.2 53L97.2 52.9 97.2 52.9 97.2 52.8C97.3 52.8 97.3 52.8 97.3 52.7L97.3 52.7 97.3 52.6 97.3 52.6C97.4 52.6 97.4 52.6 97.4 52.5L97.4 52.5 97.4 52.4 97.4 52.4C97.5 52.4 97.5 52.4 97.5 52.3L97.5 52.3 97.5 52.2C97.6 52.2 97.6 52.2 97.6 52.1L97.6 52.1 97.6 52C97.7 52 97.7 52 97.7 51.9L97.7 51.9 97.7 51.8 97.7 51.8C97.8 51.8 97.8 51.8 97.8 51.7L97.8 51.7C97.9 51.6 97.8 51.6 97.9 51.5L97.9 51.5 97.9 51.4C98 51.4 98 51.4 98 51.3L98 51.3 98 51.2C98.1 51.2 98.1 51.2 98.1 51.1L98.1 51.1 98.2 51 98.2 51 98.2 50.9 98.2 50.9C98.2 50.9 98.3 50.8 98.3 50.8L98.3 50.8 98.3 50.7 98.3 50.7C98.4 50.7 98.4 50.7 98.4 50.6L98.4 50.6C98.4 50.5 98.4 50.5 98.5 50.5L98.5 50.4 98.5 50.4 98.6 50.3 98.6 50.3 98.6 50.2 98.6 50.2C98.7 50.2 98.7 50.2 98.7 50.1L98.7 50.1C98.7 50 98.7 50 98.8 50L98.8 49.9 98.8 49.9C98.9 49.9 98.9 49.9 98.9 49.8L98.9 49.8 98.9 49.7C99 49.7 99 49.7 99 49.6L99 49.6 99.1 49.5 99.1 49.5 99.1 49.4C99.2 49.4 99.2 49.4 99.2 49.3L99.2 49.3 99.3 49.2 99.3 49.2 99.3 49.1 99.4 49.1 99.4 49 99.4 49 99.5 48.9 99.5 48.9C99.5 48.8 99.5 48.8 99.6 48.8L99.6 48.7 99.6 48.7C99.7 48.7 99.7 48.7 99.7 48.6L99.7 48.6C99.7 48.6 99.8 48.5 99.8 48.5L99.8 48.5 99.8 48.4C99.9 48.4 99.9 48.4 99.9 48.3L99.9 48.3C100 48.3 100 48.3 100 48.2L100 48.2C100 48.1 100 48.1 100.1 48.1L100.1 48.1 100.1 48C100.2 48 100.2 48 100.2 47.9L100.2 47.9C100.3 47.9 100.3 47.9 100.3 47.8L100.3 47.8C100.4 47.8 100.4 47.8 100.4 47.7L100.4 47.7 100.5 47.6 100.5 47.6C100.5 47.5 100.5 47.5 100.6 47.5L100.6 47.4 100.6 47.4 100.7 47.4 100.7 47.3 100.7 47.3C100.8 47.3 100.8 47.3 100.8 47.2L100.8 47.2C100.9 47.2 100.9 47.2 100.9 47.1L100.9 47.1 101 47 101 47C101 46.9 101 46.9 101.1 46.9L101.1 46.9 101.1 46.8 101.2 46.8 101.2 46.7 101.3 46.7 101.3 46.6 101.3 46.6C101.4 46.6 101.4 46.6 101.4 46.5L101.4 46.5C101.5 46.5 101.5 46.5 101.5 46.4L101.5 46.4C101.6 46.4 101.6 46.4 101.6 46.3L101.6 46.3C101.7 46.3 101.7 46.3 101.7 46.2L101.7 46.2C101.8 46.2 101.8 46.2 101.8 46.1L101.8 46.1 101.9 46 101.9 46 102 45.9 102 45.9C102.1 45.9 102.1 45.9 102.1 45.8L102.1 45.8C102.2 45.8 102.2 45.8 102.2 45.7L102.2 45.7C102.3 45.7 102.3 45.7 102.3 45.6L102.3 45.6 102.4 45.5 102.4 45.5 102.5 45.4 102.5 45.4C102.6 45.4 102.6 45.4 102.6 45.3L102.6 45.3C102.7 45.3 102.7 45.3 102.7 45.2L102.7 45.2C102.8 45.2 102.8 45.2 102.8 45.1L102.8 45.1C102.9 45.1 102.9 45.1 102.9 45L102.9 45C103 45 103 45 103 44.9L103.1 44.9 103.1 44.9C103.1 44.8 103.1 44.8 103.2 44.8L103.2 44.8C103.2 44.7 103.2 44.7 103.3 44.7L103.3 44.7C103.4 44.7 103.4 44.7 103.4 44.6L103.4 44.6C103.5 44.6 103.5 44.6 103.5 44.5L103.5 44.5C103.6 44.5 103.6 44.5 103.6 44.4L103.6 44.4 103.7 44.4 103.7 44.3 103.8 44.3 103.8 44.3C103.8 44.3 103.9 44.2 103.9 44.2L103.9 44.2 104 44.1 104 44.1C104.1 44.1 104.1 44.1 104.1 44L104.1 44C104.2 44 104.2 44 104.2 43.9L104.3 43.9 104.3 43.9C104.3 43.8 104.3 43.8 104.4 43.8L104.4 43.8C104.4 43.8 104.5 43.7 104.5 43.7L104.5 43.7C104.6 43.7 104.6 43.7 104.6 43.6L104.6 43.6 104.7 43.6C104.7 43.5 104.7 43.5 104.8 43.5L104.8 43.5C104.8 43.4 104.8 43.4 104.9 43.4L104.9 43.4 105 43.4C105 43.3 105 43.3 105.1 43.3L105.1 43.3C105.1 43.2 105.1 43.2 105.2 43.2L105.2 43.2C105.2 43.2 105.3 43.1 105.3 43.1L105.3 43.1C105.4 43.1 105.4 43.1 105.4 43L105.5 43 105.5 43C105.6 43 105.6 43 105.6 42.9L105.6 42.9 105.7 42.9 105.7 42.9C105.7 42.9 105.8 42.8 105.8 42.8L105.8 42.8C105.8 42.8 105.9 42.7 105.9 42.7L105.9 42.7 106 42.7C106 42.6 106 42.6 106.1 42.6L106.1 42.6 106.2 42.5 106.2 42.5 106.3 42.5C106.3 42.4 106.3 42.4 106.4 42.4L106.4 42.4C106.5 42.4 106.5 42.4 106.5 42.3L106.5 42.3 106.6 42.3 106.6 42.3C106.6 42.3 106.7 42.2 106.7 42.2L106.7 42.2 106.8 42.2 106.8 42.1 106.9 42.1 106.9 42.1C107 42.1 107 42.1 107 42L107 42 107.1 42 107.1 42C107.2 42 107.2 42 107.2 41.9L107.2 41.9 107.3 41.9 107.3 41.9C107.3 41.8 107.3 41.8 107.4 41.8L107.4 41.8 107.5 41.8C107.5 41.7 107.5 41.7 107.6 41.7L107.6 41.7C107.7 41.7 107.7 41.7 107.7 41.6L107.8 41.6 107.8 41.6C107.9 41.6 107.9 41.6 107.9 41.5L108 41.5 108 41.5C108.1 41.5 108.1 41.5 108.1 41.4L108.1 41.4 108.2 41.4 108.2 41.4C108.3 41.4 108.3 41.4 108.3 41.3L108.4 41.3 108.4 41.3C108.5 41.3 108.5 41.3 108.5 41.2L108.6 41.2 108.6 41.2C108.7 41.2 108.7 41.2 108.7 41.1L108.8 41.1 108.8 41.1 108.9 41.1C108.9 41 108.9 41 109 41L109 41 109.1 41 109.1 41 109.2 40.9 109.2 40.9 109.3 40.9 109.3 40.9 109.4 40.8 109.4 40.8 109.5 40.8 109.5 40.8C109.6 40.8 109.6 40.8 109.6 40.7L109.7 40.7 109.7 40.7 109.8 40.7C109.8 40.6 109.8 40.6 109.9 40.6L109.9 40.6 110 40.6 110 40.6C110.1 40.6 110.1 40.6 110.1 40.5L110.1 40.5 110.2 40.5 110.2 40.5 110.3 40.5C110.3 40.4 110.3 40.3 110.4 40.4L110.4 69.1 110.4 84.7" fill="#007BB9"/><path d="M127.4 84.7L127.4 56 127.4 40.4C129.3 41.3 131.1 42.2 132.8 43.4 134.5 44.6 136.1 46 137.3 47.6 138.5 49.3 139.9 50.9 140.6 52.8 141.3 54.8 142.1 56.8 142.4 58.8 143.8 67.2 140.2 76 133.5 81.2 131.6 82.7 129.5 83.6 127.4 84.7" fill="#007BB9"/><path d="M72 123.2C72 122.3 71.8 121.7 71.1 121.2 70.8 121 70.4 120.7 70 120.6 69.8 120.5 69.5 120.5 69.5 120.2 69.5 120.1 69.4 119.5 69.5 119.5 71.5 118.9 73.3 118.2 75.2 117.5 75.7 117.6 75.4 120.2 75.4 120.7 76.2 120.2 77.1 119.6 77.9 119.1 78.7 118.5 79.6 118.2 80.5 117.9 81.9 117.3 84.7 117.1 86 118.4 87.2 119.6 87.9 121.2 87.9 123.1L87.9 130 87.9 133.5C87.9 134 87.8 134.6 87.9 135.1 88 135.8 88.7 136 89.3 136L90.8 136C90.8 136 90.8 137 90.8 137.2 87.8 136.9 84.6 136.9 81.6 137.2 81.6 136.9 81.4 136 81.8 136 82.3 136 82.9 136.1 83.4 136 84.2 135.9 84.4 135.3 84.4 134.6L84.4 127.1C84.4 125.4 84.7 123.3 84.1 121.7 83.5 120.2 81.2 119.4 79.7 119.9 78.8 120.2 78.1 120.5 77.3 120.8 76.9 121 75.4 121.6 75.4 122L75.4 128.8 75.4 134.7C75.4 135.4 75.9 136 76.6 136L78.3 136C78.5 136 78.4 136.9 78.4 137.2 75.4 136.9 72.1 136.9 69.1 137.2L69.1 136.1C69.1 135.9 69.8 136 70 136 70.5 136 71.1 136.1 71.5 135.8 72.2 135.2 72 134.1 72 133.2 72 129.9 72 126.5 72 123.2" fill="#007BB9"/><path d="M101.7 123.9C103.1 124.2 103 122.3 102.7 121.4 102.2 119.9 101.2 119.2 99.8 118.9 96.7 118.3 94.7 121.2 94.2 123.9L101.7 123.9 101.7 123.9 101.7 123.9 101.7 123.9 101.7 123.9ZM94.1 125.3C93.8 126 94 127 94.1 127.8 94.2 128.6 94.3 129.3 94.5 130.1 95 131.6 95.9 133.2 97.3 134.2 98.8 135.1 100.3 135.5 102.1 135 103.8 134.5 105.1 133.5 106.3 132.3 106.4 132.5 106.7 132.8 106.9 132.9 106.3 133.7 105.7 134.5 104.9 135.2 104.6 135.5 104.2 135.8 103.8 136.1 103.4 136.5 102.9 136.6 102.6 136.9 102.2 137.3 100.7 137.7 100.1 137.7 99.2 137.7 98.3 137.8 97.3 137.6 95.3 137.3 93.8 136.3 92.6 134.7 91.5 133.3 90.8 131.3 90.7 129.6 90.5 127.6 90.8 125.6 91.4 123.7 91.7 122.8 92.1 121.9 92.6 121.1 93.3 120.3 94 119.8 94.8 119.1 96 117.9 98.2 117.5 99.8 117.5 100.7 117.5 101.5 117.7 102.4 118 103.2 118.3 104.3 118.8 104.7 119.5 105.5 120.6 106.6 121.7 106.6 123.1 106.6 123.6 106.9 124.7 106.5 125.1 106.2 125.4 105.8 125.3 105.4 125.3L94.1 125.3 94.1 125.3 94.1 125.3 94.1 125.3 94.1 125.3ZM94.1 125.3" fill="#007BB9"/><path d="M107.7 136C108.2 136 109.9 136.3 110.3 135.9 110.8 135.4 110.9 134.9 110.9 134.3L110.9 125.9 110.9 122.7C110.9 121.9 110.5 121.5 109.8 121.1 109.6 121 108.7 120.8 108.6 120.6 108.6 120.5 108.6 120 108.6 119.9 108.7 119.7 109.4 119.6 109.5 119.5 110.5 119.1 111.4 118.7 112.3 118.2 112.6 118 114.3 117 114.3 117.9L114.3 121.9C114.6 121.8 114.8 121.2 115.1 120.9 115.4 120.6 115.6 120.1 115.9 119.7 116.5 119 117.2 118.3 118 118 118.7 117.6 119.8 117.3 120.6 117.5 121.6 117.7 122.1 118.5 122.3 119.3 122.9 121 120.9 122.6 119.4 121.7 119 121.5 118.8 121.2 118.4 121.1 117.9 120.9 117.6 120.9 117.2 121 116.2 121.2 115.7 121.7 115 122.4 114.2 123.2 114.4 124.5 114.4 125.7L114.4 132.9C114.4 133.8 114.1 135.5 115.1 135.9 115.8 136.1 116.8 136 117.5 136 117.7 136 118.7 135.9 118.8 136 118.9 136.1 118.8 137 118.8 137.2 115.2 137 111.3 136.9 107.7 137.2 107.7 136.8 107.7 136.4 107.7 136" fill="#007BB9"/><path d="M124.3 131.2C124.5 132.2 124.9 133 125.3 133.9 125.7 134.7 126.4 135 127.1 135.7 128.1 136.7 131.1 136.8 132.1 135.8 132.8 135.1 133.2 134.4 133.2 133.5 133.2 132.5 132.9 132 132.5 131.2 132.1 130.4 130.9 130 130.2 129.7 129.2 129.2 128.3 128.8 127.4 128.3 126.5 127.9 125.8 127.3 125.1 126.6 124.5 125.9 124.3 125.3 124 124.4 123.4 122.8 124.1 120.8 125.2 119.5 126.4 118.2 128.3 117.5 130.1 117.5 131.1 117.5 132 117.6 133 117.8 133.6 117.9 135.4 118.3 135.4 119 135.5 120 135.7 121 135.7 122 135.7 122.7 135.9 123.1 135.2 123.1 134.9 123.1 134.7 123.2 134.7 122.9 134.7 122.6 134.5 122.4 134.5 122.1 134.1 120.4 132.5 118.9 130.8 118.9 129.9 118.9 128.9 118.7 128.1 119.3 127.4 119.7 126.7 120.4 126.7 121.4 126.7 122.2 126.7 123 127.4 123.7 128 124.3 128.7 124.8 129.5 125.2 131.2 126.1 133.3 126.6 134.8 127.9 136.2 129.1 136.7 130.6 136.7 132.4 136.7 134 135.4 135.7 134.1 136.6 132.6 137.6 130.7 137.8 128.8 137.8 128 137.8 127.1 137.6 126.3 137.3 125.7 137.1 124.3 136.9 124 136.3 123.8 136 123.9 135.4 123.9 135.1 123.8 134.5 123.7 133.8 123.7 133.2 123.6 132.7 123.6 132.3 123.5 131.8 123.5 131.3 123.8 131.2 124.3 131.2" fill="#007BB9"/><path d="M175.7 114.9C175.1 114.9 174.6 115.1 174.5 114.5 174.4 114 174.4 113.5 174.2 113.1 173.9 112.2 173.4 111.4 172.8 110.7 171.6 109.3 170 108.4 168.2 108.1 164.2 107.3 159.9 108.3 157 111.2 151.4 116.8 152.1 127.2 157.6 132.7 160.3 135.3 164.2 137.1 168.1 136.2 169.8 135.8 171.6 134.9 172.7 133.4 173.2 132.6 173.8 131.9 174.2 131 174.4 130.6 174.4 130.2 174.5 129.8 174.6 129.6 174.7 129.5 174.7 129.2 174.7 128.8 175 129.1 175.2 129.1 175.4 129.1 175.5 129.2 175.7 129.2 175.4 131.3 175.1 133.4 174.7 135.5 174.7 135.7 173.8 136 173.6 136.1 173.2 136.3 172.7 136.5 172.2 136.6 171.2 136.8 170.2 137.1 169.2 137.3 167.3 137.9 165.2 137.9 163.3 137.7 162.2 137.6 161.1 137.4 160.1 137.1 159.1 136.9 158.3 136.5 157.4 136.2 155.7 135.7 154 134.2 152.8 132.9 151.3 131.5 150.5 129.6 149.8 127.8 148.3 124.4 148.4 120.1 149.6 116.7 150.2 114.9 151.3 113.2 152.6 111.8 154.1 110.2 155.7 109.2 157.5 108.2 159.3 107.2 161.4 106.8 163.3 106.5 165.2 106.3 167.4 106.3 169.2 106.9 171.2 107.5 173.3 108.1 175.3 108.7 175.5 108.7 175.5 111.5 175.5 111.8 175.6 112.8 175.6 113.9 175.7 114.9" fill="#007BB9"/><path d="M177.3 136C178 136 179.3 136.2 179.8 135.8 180.2 135.3 180.1 134.9 180.1 134.3L180.1 128.3 180.1 111.2C180.1 109.9 180.3 108.3 179.1 107.7 178.9 107.6 178.1 107.4 177.9 107.2 177.5 106.7 178.3 106.4 178.7 106.2 179.7 106 180.6 105.6 181.5 105.1 181.7 105 183.5 104 183.5 104.4 183.5 104.6 183.6 104.9 183.6 105.2L183.6 111.2 183.6 129.8 183.6 134.5C183.6 134.9 183.8 135.9 184.3 135.9 184.6 135.9 185 136 185.4 136L186.4 136C186.6 136 186.5 136.4 186.5 136.6L186.5 137.2C183.5 136.9 180.3 136.9 177.3 137.2L177.3 136" fill="#007BB9"/><path d="M205 134.8C204.9 135.5 205.6 135.6 206.1 135.6L207.6 135.6C207.9 135.6 207.9 135.6 207.9 136 207.9 136.5 208 136.3 207.6 136.5 207.2 136.7 206.6 136.6 206.1 136.7 205.5 136.9 205 137 204.4 137.1 203.7 137.2 202.1 138 201.5 137.7L201.5 134.2C200.7 134.8 200 135.4 199.2 136 198.5 136.6 197.5 136.9 196.7 137.3 195.1 138.1 192.7 138 191.1 137 189.6 136.1 189.1 134.3 189.1 132.7L189.1 125.7C189.1 123.8 189.5 121.6 188.6 120 188.5 119.7 187.8 119.5 187.5 119.4 186.8 119.1 186.5 119.5 186.5 118.6 186.5 118.3 187.4 118.4 187.7 118.3 188.3 118.2 188.9 118.2 189.5 118.2 190.4 118.2 191.3 118.1 192.3 118.1 192.6 118.1 192.5 118.8 192.5 119.1L192.5 127.4C192.5 129.2 192.4 131 192.9 132.8 193.1 133.6 193.4 134.4 194.1 134.9 194.8 135.3 195.8 135.6 196.6 135.5 197.5 135.4 198.3 135 199.1 134.5 199.5 134.3 199.9 134.1 200.3 133.9 200.6 133.6 201.4 133.1 201.5 132.8 201.7 132.3 201.5 131.1 201.5 130.5L201.5 125.7 201.5 121.8C201.5 121.6 201.5 121.4 201.5 121.2 201.4 120.8 201.2 120.8 200.9 120.5 200.3 119.9 198.9 119.7 198 119.5 197.8 119.5 197.9 119.1 197.9 118.9 197.9 118.6 198 118.7 198.3 118.7 198.9 118.6 199.5 118.6 200.1 118.5 201.1 118.4 202.2 118.3 203.2 118.3 203.8 118.2 205 117.8 205 118.6L205 124.7C205 128.1 205 131.4 205 134.8" fill="#007BB9"/><path d="M213.6 132.3C213.4 134.1 215.2 136 216.7 136.5 218.5 137.1 220.5 136.5 221.9 135.3 224.7 133 225.2 128.2 224 125 222.8 121.7 219.2 118.5 215.6 120.4 215.2 120.5 213.6 121.4 213.6 121.9L213.6 125C213.6 127.4 213.6 129.9 213.6 132.3L213.6 125.3 213.6 121.3 213.6 120.6C213.6 120.5 214.5 119.8 214.7 119.7 216.4 118.8 217.8 117.5 219.8 117.5 220.8 117.5 221.6 117.6 222.5 117.9 223.5 118.1 224.2 118.7 225 119.2 226.4 120.2 227.3 122.3 227.7 123.9 227.9 124.9 228.1 125.9 228.1 126.9 228.1 128 227.7 129 227.5 129.9 227.4 130.8 226.9 131.8 226.4 132.5 225.9 133.4 225.3 134.4 224.6 135 222.9 136.2 221.5 137.3 219.5 137.7 217.5 138 215.5 137.7 213.6 137.1 213.2 137 212.8 136.7 212.4 136.6 211.8 136.3 211.6 136.3 211.1 136.8 210.8 137.1 210.5 137.3 210 137.1 209.4 136.8 209.6 136.6 209.7 135.9 210.3 132.1 210.1 128.3 210.1 124.5L210.1 110.1C210.1 109.5 210.1 108.2 209.4 107.8 209 107.6 208.6 107.5 208.2 107.3 207.8 107.2 207.8 107.2 207.8 106.8 207.8 106.5 208 106.5 208.3 106.4 209.2 106 210.1 105.8 210.9 105.4 211.6 105.1 212.7 104.7 213.2 104.2 213.9 104.2 213.6 106.5 213.6 107L213.6 115.1 213.6 131.5C213.6 131.8 213.6 132 213.6 132.3" fill="#007BB9"/><path d="M35.5 132.1C35.3 133.8 36.5 135.2 38.1 135.6 39.8 136 41.9 135.8 43.6 135.4 47.6 134.5 50.3 131.5 51.6 127.7 52.3 125.7 52.4 123.7 52.4 121.7 52.4 119.5 51.7 117.7 51.1 115.7 50.8 115 50.1 113.8 49.6 113.3 48.8 112.5 48.2 111.7 47.4 111.1 45.8 109.9 43.9 109.1 41.9 108.7 40 108.3 38 108.6 36 108.6 35.3 108.6 35.5 108.8 35.5 109.5L35.5 112.5 35.5 130.2C35.5 130.8 35.5 131.5 35.5 132.1L35.5 132.1 35.5 132.1 35.5 132.1 35.5 132.1ZM31.3 111.9C31.3 111.1 31.2 110.1 30.9 109.4 30.5 108.6 29.6 108.5 28.9 108.2 28.5 108.1 27.9 108.2 27.5 108.2 27.2 108.2 27.2 107.1 27.4 107.1 28.6 107.1 29.7 107.1 30.8 107.2 31.9 107.3 32.9 107.1 33.9 107.1 35.1 107.1 36.2 107.1 37.4 107.1L40.4 107.1C41.4 107.1 42.5 107.1 43.5 107.3 44.4 107.5 45.5 107.6 46.3 108 46.7 108.2 47.1 108.2 47.5 108.4 47.9 108.6 48.4 108.9 48.8 109 49.7 109.2 50.4 110 51.2 110.5 52.1 111 52.8 111.8 53.5 112.6 54.1 113.4 54.7 114.1 55.2 115 55.8 115.9 56.1 116.9 56.5 117.8 57.3 119.7 57 121.9 57 123.8 57 124.8 56.6 125.9 56.3 126.8 56 127.7 55.7 128.7 55.2 129.4 54.6 130.3 54.1 131.2 53.4 131.9 53.1 132.2 52.9 132.5 52.5 132.8 52.2 133.2 51.8 133.4 51.4 133.8 50.1 135.1 48.1 135.6 46.4 136.2 44.5 137 42.5 136.9 40.6 137.1 39.6 137.3 38.6 137.1 37.5 137.1L34 137.1C31.8 137.1 29.5 137 27.3 137.2 27.3 136.9 27.1 136 27.5 136 28 136 28.5 135.9 29 135.8 29.8 135.6 30.5 135.4 30.8 134.7 31.5 133.5 31.3 131.9 31.3 130.5L31.3 113.3C31.3 112.8 31.3 112.4 31.3 111.9 31.3 111.9 31.3 112.4 31.3 111.9L31.3 111.9 31.3 111.9ZM31.3 111.9" fill="#007BB9"/><path d="M67.2 136C66.8 136 66.3 136.1 65.9 136 65.5 135.9 65.4 135.6 65.2 135.4 64.9 135 65 134.2 65 133.8L65 125.2 65 118.1C65 117.5 64.7 117.2 64 117.6 63 118 61.9 118.3 60.9 118.7 60.4 118.8 59.9 118.9 59.4 119.1 59.2 119.1 59.3 119.4 59.3 119.6 59.3 119.9 59.5 119.9 59.7 120.1 60.4 120.5 61.1 120.9 61.4 121.7 61.6 122.2 61.5 122.9 61.5 123.5L61.5 127.7 61.5 134.6C61.5 135.3 61.3 135.9 60.5 136 60 136.1 59.4 136 58.9 136 58.4 136 58.6 136.8 58.6 137.2 60.5 137.1 62.4 137.1 64.4 137.1 65.2 137.1 66.1 137.2 66.9 137.2 67.5 137.2 67.9 137.4 67.9 136.8 67.9 136 68 136 67.2 136" fill="#007BB9"/><path d="M65.4 108.6C65.3 109.8 64.4 110.7 63.2 110.7 62 110.7 61.2 109.6 61.2 108.5 61.2 107.4 62.1 106.6 63.1 106.5 64.4 106.4 65.3 107.4 65.4 108.6" fill="#007BB9"/></g></svg>