<svg xmlns="http://www.w3.org/2000/svg" width="256" height="160" viewBox="0" version="1"><defs><linearGradient x1="50%" y1="0%" x2="50%" y2="100%" id="lg1"><stop stop-color="#FAFAFA" offset="0%"/><stop stop-color="#DFDFDF" offset="100%"/></linearGradient><radialGradient cx="50%" cy="50%" fx="50%" fy="50%" r="50%" id="rg1"><stop stop-color="#FFFFFF" offset="0%"/><stop stop-color="#FD8230" offset="100%"/></radialGradient></defs><g stroke="none" stroke-width="1" fill="none" fill-rule="evenodd"><rect d="M0,0 L0,160 L256,160 L256,0 L0,0 Z M0,0" fill="url(#lg1)" x="0" y="0" width="256" height="160"/><path d="M256 160L256 95C232 115 168 155 45 160L256 160ZM256 160" fill="#FD8230"/><g transform="translate(18.000000, 63.000000)" fill="#FFFFFF"><path d="M217 11C217 5 212 1 204 1L194 1 194 35 201 35 201 21 202 21 211 35 220 35 209 21C214 20 217 16 217 11M203 16L201 16 201 6 203 6C208 6 210 8 210 11 210 14 208 16 203 16"/><path d="M170 35L189 35 189 29 177 29 177 20 189 20 189 14 177 14 177 7 189 7 189 1 170 1 170 1 170 35 170 35ZM170 35"/><path d="M150 23L141 0 133 0 148 35 152 35 167 0 160 0 160 0 150 23 150 23ZM150 23"/><path d="M98 18C98 28 106 36 116 36L116 36C127 36 135 28 135 18L135 18C135 8 127 0 116 0L116 0C106 0 98 8 98 18"/><path d="M68 18C68 28 76 36 86 36 89 36 92 35 95 34L95 26C92 29 90 30 87 30 80 30 75 25 75 18 75 11 80 6 86 6 90 6 92 7 95 10L95 2C92 1 90 0 87 0 76 0 68 8 68 18"/><path d="M56 14C52 12 51 11 51 9 51 7 53 6 56 6 58 6 59 6 61 8L65 4C62 1 58 0 55 0 48 0 44 4 44 10 44 15 46 17 52 19 55 20 56 21 57 21 58 22 59 23 59 25 59 28 57 30 54 30 51 30 48 28 46 25L42 29C45 34 49 36 54 36 61 36 66 31 66 25 66 19 64 17 56 14"/><path d="M32 35L39 35 39 1 32 1 32 1 32 35 32 35ZM32 35"/><path d="M10 1L0 1 0 35 10 35C15 35 19 34 23 31 27 28 29 23 29 18 29 8 21 1 10 1M18 26C16 28 13 29 9 29L7 29 7 7 9 7C13 7 16 8 18 10 21 12 22 15 22 18 22 21 21 24 18 26"/></g><g transform="translate(18.000000, 61.000000)"><path d="M217 11C217 5 212 1 204 1L194 1 194 35 201 35 201 21 202 21 211 35 220 35 209 21C214 20 217 16 217 11M203 16L201 16 201 6 203 6C208 6 210 8 210 11 210 14 208 16 203 16" fill="#00121E"/><path d="M170 35L189 35 189 29 177 29 177 20 189 20 189 14 177 14 177 7 189 7 189 1 170 1 170 1 170 35 170 35ZM170 35" fill="#00121E"/><path d="M150 23L141 0 133 0 148 35 152 35 167 0 160 0 160 0 150 23 150 23ZM150 23" fill="#00121E"/><path d="M98 18C98 28 106 36 116 36L116 36C127 36 135 28 135 18L135 18C135 8 127 0 116 0L116 0C106 0 98 8 98 18" fill="url(#rg1)"/><path d="M68 18C68 28 76 36 86 36 89 36 92 35 95 34L95 26C92 29 90 30 87 30 80 30 75 25 75 18 75 11 80 6 86 6 90 6 92 7 95 10L95 2C92 1 90 0 87 0 76 0 68 8 68 18" fill="#00121E"/><path d="M56 14C52 12 51 11 51 9 51 7 53 6 56 6 58 6 59 6 61 8L65 4C62 1 58 0 55 0 48 0 44 4 44 10 44 15 46 17 52 19 55 20 56 21 57 21 58 22 59 23 59 25 59 28 57 30 54 30 51 30 48 28 46 25L42 29C45 34 49 36 54 36 61 36 66 31 66 25 66 19 64 17 56 14" fill="#00121E"/><path d="M32 35L39 35 39 1 32 1 32 1 32 35 32 35ZM32 35" fill="#00121E"/><path d="M10 1L0 1 0 35 10 35C15 35 19 34 23 31 27 28 29 23 29 18 29 8 21 1 10 1M18 26C16 28 13 29 9 29L7 29 7 7 9 7C13 7 16 8 18 10 21 12 22 15 22 18 22 21 21 24 18 26" fill="#00121E"/></g></g></svg>