<svg xmlns="http://www.w3.org/2000/svg" width="256" height="160" viewBox="0" version="1.1"><defs><linearGradient x1="50%" y1="0%" x2="50%" y2="100%" id="lg1"><stop stop-color="#DF6827" offset="0%"/><stop stop-color="#C85D22" offset="100%"/></linearGradient><linearGradient x1="0%" y1="50%" x2="88%" y2="50%" id="lg2"><stop stop-color="#FFFFFF" offset="0%"/><stop stop-color="#FF7C2D" offset="100%"/></linearGradient></defs><g stroke="none" stroke-width="1" fill="none" fill-rule="evenodd"><rect d="M0,0 L0,160 L256,160 L256,0 L0,0 Z M0,0" fill="url(#lg1)" x="0" y="0" width="256" height="160"/><g transform="translate(15.000000, 21.000000)"><g transform="translate(0.000000, 73.000000)" fill="#FFFFFF"><path d="M12.3 39C15.2 39 17.7 38.7 19.8 38 21.9 37.4 23.6 36.4 25 35 26.4 33.6 27.4 31.7 28 29.5 28.7 27.3 29 24.6 29 21.5 29 18.4 28.7 15.7 28 13.5 27.4 11.3 26.4 9.4 25 8 23.6 6.6 21.9 5.6 19.8 5 17.7 4.3 15.2 4 12.3 4L4 4 4 39 12.3 39 12.3 39 12.3 39 12.3 39ZM14.2 1C20.4 1.2 25.1 2.9 28.3 6.4 31.4 9.8 33 15 33 22 33 29 31.4 34.2 28.3 37.6 25.1 41 20.4 42.8 14.2 43L0 43 0 1 14.2 1 14.2 1 14.2 1 14.2 1ZM14.2 1"/><path d="M39.2 1L48.5 37.8 48.6 37.8 58.6 1 63.5 1 73.6 37.8 73.7 37.8 83.1 1 87 1 75.7 43 71.5 43 61.1 5.4 61 5.4 50.6 43 46.4 43 35 1 39.2 1"/><path d="M92.9 27.6C93.5 29.7 94.4 31.7 95.7 33.4 96.9 35.1 98.5 36.4 100.5 37.5 102.5 38.5 104.8 39 107.5 39 110.3 39 112.6 38.5 114.5 37.5 116.5 36.4 118.1 35.1 119.3 33.4 120.6 31.7 121.5 29.7 122.1 27.6 122.7 25.4 123 23.2 123 21 123 18.7 122.7 16.5 122.1 14.4 121.5 12.3 120.6 10.3 119.3 8.6 118.1 6.9 116.5 5.6 114.5 4.5 112.6 3.5 110.3 3 107.5 3 104.8 3 102.4 3.5 100.5 4.5 98.5 5.6 96.9 6.9 95.7 8.6 94.4 10.3 93.5 12.3 92.9 14.4 92.3 16.5 92 18.7 92 21 92 23.2 92.3 25.4 92.9 27.6 92.9 27.6 92.3 25.4 92.9 27.6L92.9 27.6 92.9 27.6 92.9 27.6 92.9 27.6ZM89.2 13.4C90 10.8 91.2 8.5 92.9 6.5 94.5 4.5 96.5 2.9 99 1.8 101.4 0.6 104.3 0 107.5 0 110.8 0 113.6 0.6 116 1.8 118.5 2.9 120.5 4.5 122.1 6.5 123.8 8.5 125 10.8 125.8 13.4 126.6 16 127 18.7 127 21.5 127 24.4 126.6 27.1 125.8 29.7 125 32.3 123.8 34.5 122.1 36.5 120.5 38.5 118.5 40.1 116 41.2 113.6 42.4 110.8 43 107.5 43 104.3 43 101.4 42.4 99 41.2 96.5 40.1 94.5 38.5 92.9 36.5 91.2 34.5 90 32.3 89.2 29.7 88.4 27.1 88 24.4 88 21.5 88 18.7 88.4 16 89.2 13.4L89.2 13.4 89.2 13.4 89.2 13.4 89.2 13.4ZM89.2 13.4"/><path d="M135.9 1L135.9 39.6 159 39.6 159 43 132 43 132 1 135.9 1"/><path d="M166.9 1L166.9 39.6 190 39.6 190 43 163 43 163 1 166.9 1"/><path d="M215 27L207.1 5 199 27 215 27 215 27 215 27 215 27ZM209.9 1L226 43 221.8 43 216.8 29.9 198.1 29.9 193.1 43 189 43 205.5 1 209.9 1 209.9 1 209.9 1 209.9 1ZM209.9 1"/></g><path d="M109.3 41.8L97.7 46.5C97.7 46.5 93.2 48.3 94.1 54.4 95 60.5 100.2 62.6 104.5 61.9 108.7 61.2 112.8 58.6 113 51.8 113.2 45 109.3 41.8 109.3 41.8L109.3 41.8 109.3 41.8 109.3 41.8ZM109.3 41.8" fill="url(#lg2)"/><path d="M122.3 23.7C118.8 19.4 115.5 15.4 115.5 12.3 115.5 5.1 120.4 2 120.6 1.9 121 1.6 121.2 1 121 0.5 120.7 0.1 120.2-0.1 119.7 0.1L98.9 9.2C98.9 9.2 98.8 9.2 98.8 9.3 98.6 9.4 94 12.6 94 21.6 94 26.3 98.4 31.4 103.1 36.9 104.5 38.5 105.9 40.2 107.2 41.8L97.3 45.7C95.5 46.4 92.3 49.2 93.1 54.7 94 61 98.9 63.2 102.9 63.2L102.9 63.2C103.5 63.2 104 63.2 104.6 63.1 105.3 63 105.9 62.8 106.5 62.6 106.6 62.6 106.7 62.6 106.7 62.6 106.8 62.6 107.2 62.5 107.8 62.1L127.3 53.9C127.3 53.9 127.4 53.9 127.4 53.9 127.6 53.7 133 50.6 133 44.4 133 36.6 127.3 29.7 122.3 23.7 122.3 23.7 127.3 29.7 122.3 23.7L122.3 23.7 122.3 23.7ZM104.3 61.1C103.8 61.2 103.4 61.2 102.9 61.2L102.9 61.2C99.7 61.2 95.8 59.4 95.1 54.4 94.4 49.2 97.9 47.6 98.1 47.6L108.4 43.4C110.4 46.2 111.8 48.8 111.8 51.1 111.8 57 108.8 59.4 107 60.3L106.7 60.5C105.9 60.7 105.2 61 104.3 61.1 104.3 61.1 105.2 61 104.3 61.1L104.3 61.1 104.3 61.1ZM104.3 61.1" fill="#FFFFFF"/></g><rect d="M0,0 L0,2 L256,2 L256,0 L0,0 Z M0,0" fill="#EDB393" x="0" y="0" width="256" height="2"/></g></svg>