<svg xmlns="http://www.w3.org/2000/svg" width="256" height="160" viewBox="0" version="1.1"><defs><linearGradient x1="50%" y1="0%" x2="50%" y2="100%" id="lg1"><stop stop-color="#E5FAD2" offset="0%"/><stop stop-color="#CEE1BD" offset="100%"/></linearGradient></defs><g stroke="none" stroke-width="1" fill="none" fill-rule="evenodd"><rect d="M0,0 L0,160 L256,160 L256,0 L0,0 Z M0,0" fill="url(#lg1)" x="0" y="0" width="256" height="160"/><g transform="translate(0.000000, 4.000000)" fill="#CEE1BD"><rect d="M0,0 L0,3 L256,3 L256,0 L0,0 Z M0,0" x="0" y="0" width="256" height="3"/><rect d="M0,6 L0,9 L256,9 L256,6 L0,6 Z M0,6" x="0" y="6" width="256" height="3"/><rect d="M0,12 L0,15 L256,15 L256,12 L0,12 Z M0,12" x="0" y="12" width="256" height="3"/><rect d="M0,18 L0,21 L256,21 L256,18 L0,18 Z M0,18" x="0" y="18" width="256" height="3"/><rect d="M0,24 L0,27 L256,27 L256,24 L0,24 Z M0,24" x="0" y="24" width="256" height="3"/><rect d="M0,30 L0,33 L256,33 L256,30 L0,30 Z M0,30" x="0" y="30" width="256" height="3"/><rect d="M0,36 L0,39 L256,39 L256,36 L0,36 Z M0,36" x="0" y="36" width="256" height="3"/><rect d="M0,42 L0,45 L256,45 L256,42 L0,42 Z M0,42" x="0" y="42" width="256" height="3"/><rect d="M0,48 L0,51 L256,51 L256,48 L0,48 Z M0,48" x="0" y="48" width="256" height="3"/><rect d="M0,54 L0,57 L256,57 L256,54 L0,54 Z M0,54" x="0" y="54" width="256" height="3"/><rect d="M0,60 L0,63 L256,63 L256,60 L0,60 Z M0,60" x="0" y="60" width="256" height="3"/><rect d="M0,66 L0,69 L256,69 L256,66 L0,66 Z M0,66" x="0" y="66" width="256" height="3"/><rect d="M0,72 L0,75 L256,75 L256,72 L0,72 Z M0,72" x="0" y="72" width="256" height="3"/><rect d="M0,78 L0,81 L256,81 L256,78 L0,78 Z M0,78" x="0" y="78" width="256" height="3"/><rect d="M0,84 L0,87 L256,87 L256,84 L0,84 Z M0,84" x="0" y="84" width="256" height="3"/><rect d="M0,90 L0,93 L256,93 L256,90 L0,90 Z M0,90" x="0" y="90" width="256" height="3"/><rect d="M0,96 L0,99 L256,99 L256,96 L0,96 Z M0,96" x="0" y="96" width="256" height="3"/><rect d="M0,102 L0,105 L256,105 L256,102 L0,102 Z M0,102" x="0" y="102" width="256" height="3"/><rect d="M0,108 L0,111 L256,111 L256,108 L0,108 Z M0,108" x="0" y="108" width="256" height="3"/><rect d="M0,114 L0,117 L256,117 L256,114 L0,114 Z M0,114" x="0" y="114" width="256" height="3"/><rect d="M0,120 L0,123 L256,123 L256,120 L0,120 Z M0,120" x="0" y="120" width="256" height="3"/><rect d="M0,126 L0,129 L256,129 L256,126 L0,126 Z M0,126" x="0" y="126" width="256" height="3"/><rect d="M0,132 L0,135 L256,135 L256,132 L0,132 Z M0,132" x="0" y="132" width="256" height="3"/><rect d="M0,138 L0,141 L256,141 L256,138 L0,138 Z M0,138" x="0" y="138" width="256" height="3"/><rect d="M0,144 L0,147 L256,147 L256,144 L0,144 Z M0,144" x="0" y="144" width="256" height="3"/></g><g transform="translate(14.000000, 22.000000)"><rect d="M0,22 L0,25 L228,25 L228,22 L0,22 Z M0,22" fill="#316201" x="0" y="22" width="228" height="3"/><rect d="M0,87 L0,90 L228,90 L228,87 L0,87 Z M0,87" fill="#316201" x="0" y="87" width="228" height="3"/><path d="M120 0L120 25 228 25 228 0 120 0ZM123 3L123 22 225 22 225 3 123 3ZM123 3" fill="#316201"/><rect d="M0.990777969,103 C0.443586406,103 0,103.446311 0,103.997545 L0,111.002455 C0,111.553384 0.45097518,112 0.990777969,112 L5.00922203,112 C5.55641359,112 6,111.553689 6,111.002455 L6,103.997545 C6,103.446616 5.54902482,103 5.00922203,103 L0.990777969,103 Z M0.990777969,103" fill="#316201" x="0" y="103" width="6" height="9" rx="1"/><rect d="M8.99077797,109 C8.44358641,109 8,109.450975 8,109.990778 L8,114.009222 C8,114.556414 8.45097518,115 8.99077797,115 L13.009222,115 C13.5564136,115 14,114.549025 14,114.009222 L14,109.990778 C14,109.443586 13.5490248,109 13.009222,109 L8.99077797,109 Z M8.99077797,109" fill="#316201" x="8" y="109" width="6" height="6" rx="1"/><rect d="M8.99077797,100 C8.44358641,100 8,100.450975 8,100.990778 L8,105.009222 C8,105.556414 8.45097518,106 8.99077797,106 L13.009222,106 C13.5564136,106 14,105.549025 14,105.009222 L14,100.990778 C14,100.443586 13.5490248,100 13.009222,100 L8.99077797,100 Z M8.99077797,100" fill="#316201" x="8" y="100" width="6" height="6" rx="1"/><g transform="translate(214.000000, 100.000000)" fill="#316201"><rect d="M1,4 C0.44771525,4 0,4.44483697 0,4.9955775 L0,14.0044225 C0,14.5542648 0.443864822,15 1,15 L1,15 C1.55228475,15 2,14.555163 2,14.0044225 L2,4.9955775 C2,4.44573523 1.55613518,4 1,4 L1,4 Z M1,4" x="0" y="4" width="2" height="11" rx="1"/><rect d="M5,4 C4.44771525,4 4,4.44483697 4,4.9955775 L4,14.0044225 C4,14.5542648 4.44386482,15 5,15 L5,15 C5.55228475,15 6,14.555163 6,14.0044225 L6,4.9955775 C6,4.44573523 5.55613518,4 5,4 L5,4 Z M5,4" x="4" y="4" width="2" height="11" rx="1"/><rect d="M8.99077797,0 C8.44358641,0 8,0.45097518 8,0.990777969 L8,5.00922203 C8,5.55641359 8.45097518,6 8.99077797,6 L13.009222,6 C13.5564136,6 14,5.54902482 14,5.00922203 L14,0.990777969 C14,0.443586406 13.5490248,0 13.009222,0 L8.99077797,0 Z M8.99077797,0" x="8" y="0" width="6" height="6" rx="1"/></g><path d="M24.4 113.2L24.4 101 19.9 101C19.4 101 19 101.3 19 101.9 19 102.5 19.4 102.8 19.9 102.8L22.6 102.8 22.6 113.2 19.9 113.2C19.4 113.2 19 113.5 19 114.1 19 114.7 19.4 115 19.9 115L27.1 115C27.6 115 28 114.7 28 114.1L28 109.6C28 109 27.8 108.7 27.1 108.7 26.4 108.7 26.2 109 26.2 109.6L26.2 113.2 24.4 113.2ZM33.8 108.9L39 108.9C39.6 108.9 40 108.8 40.4 108.4 40.9 107.9 41 107.4 41 106.8L41 103.1C41 102.5 40.9 102 40.4 101.5 40 101.1 39.6 101 39 101L32.9 101C32.4 101 32 101.3 32 101.9 32 102.5 32.4 102.8 32.9 102.8L39.2 102.8 39.2 107.1 34.1 107.1C32.7 107.1 32 107.8 32 109.1L32 115 40.1 115C40.6 115 41 114.7 41 114.1 41 113.5 40.6 113.2 40.1 113.2L33.8 113.2 33.8 108.9ZM53.2 102.8L53.2 105.8C53.2 106.8 52.8 107.1 52.3 107.1L48.7 107.1C48.2 107.1 47.8 107.4 47.8 108 47.8 108.6 48.2 108.9 48.7 108.9L52.3 108.9C52.8 108.9 53.2 109.2 53.2 110.2L53.2 113.2 46.9 113.2C46.4 113.2 46 113.5 46 114.1 46 114.7 46.4 115 46.9 115L53.2 115C54.2 115 55 114.2 55 113.2L55 109.7C55 109 54.9 108.5 54.3 108 54.9 107.5 55 107 55 106.3L55 102.8C55 101.8 54.2 101 53.2 101L46.9 101C46.4 101 46 101.3 46 101.9 46 102.5 46.4 102.8 46.9 102.8 46.9 102.8 46.4 102.8 46.9 102.8L53.2 102.8ZM53.2 102.8" fill="#316201"/><path d="M31.6 66.5C31.7 65.8 31.9 64.3 31.9 62.6 31.9 54.9 28 47 17.9 47 7.1 47 2.1 55.8 2.1 63.7 2.1 73.5 8.2 79.6 18.8 79.6 23 79.6 26.9 79 30.1 77.7L28.9 71.1C26.2 72 23.6 72.4 20.2 72.4 15.7 72.4 11.7 70.5 11.4 66.5 11.4 66.5 11.7 70.5 11.4 66.5L31.6 66.5ZM11.3 59.8C11.6 57.2 13.2 53.5 17.4 53.5 21.8 53.5 22.8 57.4 22.8 59.8 22.8 59.8 22.8 57.4 22.8 59.8L11.3 59.8ZM68.2 70.1C66.2 70.9 63 71.5 60 71.5 51.4 71.5 46.3 66.1 46.3 57.5 46.3 47.9 52.3 43.2 60 43.2 63.5 43.2 66.2 44 68.2 44.8L70.2 37.1C68.5 36.2 64.6 35.2 59.6 35.2 46.5 35.2 36 43.4 36 58 36 70.3 43.7 79.6 58.6 79.6 63.8 79.6 67.9 78.6 69.6 77.8 69.6 77.8 67.9 78.6 69.6 77.8L68.2 70.1ZM76.2 35.9L76.2 79 85.9 79 85.9 61 102 61 102 79 111.7 79 111.7 35.9 102 35.9 102 52.5 85.9 52.5 85.9 35.9 76.2 35.9ZM145.9 52.8L130 52.8 130 43.9 146.8 43.9 146.8 35.9 120.3 35.9 120.3 79 147.7 79 147.7 71 130 71 130 60.8 145.9 60.8 145.9 52.8ZM184.6 70.1C182.6 70.9 179.4 71.5 176.4 71.5 167.7 71.5 162.6 66.1 162.6 57.5 162.6 47.9 168.6 43.2 176.3 43.2 179.8 43.2 182.6 44 184.5 44.8L186.6 37.1C184.8 36.2 181 35.2 175.9 35.2 162.9 35.2 152.4 43.4 152.4 58 152.4 70.3 160.1 79.6 175 79.6 180.2 79.6 184.3 78.6 186 77.8 186 77.8 184.3 78.6 186 77.8L184.6 70.1ZM192.4 79L202.1 79 202.1 64.9 205.8 60.4 216.4 79 227.7 79 212.7 54.2 227 35.9 215 35.9 205.2 50.2C204.2 51.7 203.2 53.3 202.2 54.9L202.1 54.9 202.1 35.9 192.4 35.9 192.4 79ZM192.4 79" fill="#FFFFFF"/><path d="M31.6 64.5C31.7 63.8 31.9 62.3 31.9 60.6 31.9 52.9 28 45 17.9 45 7.1 45 2.1 53.8 2.1 61.7 2.1 71.5 8.2 77.6 18.8 77.6 23 77.6 26.9 77 30.1 75.7L28.9 69.1C26.2 70 23.6 70.4 20.2 70.4 15.7 70.4 11.7 68.5 11.4 64.5 11.4 64.5 11.7 68.5 11.4 64.5L31.6 64.5ZM11.3 57.8C11.6 55.2 13.2 51.5 17.4 51.5 21.8 51.5 22.8 55.4 22.8 57.8 22.8 57.8 22.8 55.4 22.8 57.8L11.3 57.8ZM68.2 68.1C66.2 68.9 63 69.5 60 69.5 51.4 69.5 46.3 64.1 46.3 55.5 46.3 45.9 52.3 41.2 60 41.2 63.5 41.2 66.2 42 68.2 42.8L70.2 35.1C68.5 34.2 64.6 33.2 59.6 33.2 46.5 33.2 36 41.4 36 56 36 68.3 43.7 77.6 58.6 77.6 63.8 77.6 67.9 76.6 69.6 75.8 69.6 75.8 67.9 76.6 69.6 75.8L68.2 68.1ZM76.2 33.9L76.2 77 85.9 77 85.9 59 102 59 102 77 111.7 77 111.7 33.9 102 33.9 102 50.5 85.9 50.5 85.9 33.9 76.2 33.9ZM145.9 50.8L130 50.8 130 41.9 146.8 41.9 146.8 33.9 120.3 33.9 120.3 77 147.7 77 147.7 69 130 69 130 58.8 145.9 58.8 145.9 50.8ZM184.6 68.1C182.6 68.9 179.4 69.5 176.4 69.5 167.7 69.5 162.6 64.1 162.6 55.5 162.6 45.9 168.6 41.2 176.3 41.2 179.8 41.2 182.6 42 184.5 42.8L186.6 35.1C184.8 34.2 181 33.2 175.9 33.2 162.9 33.2 152.4 41.4 152.4 56 152.4 68.3 160.1 77.6 175 77.6 180.2 77.6 184.3 76.6 186 75.8 186 75.8 184.3 76.6 186 75.8L184.6 68.1ZM192.4 77L202.1 77 202.1 62.9 205.8 58.4 216.4 77 227.7 77 212.7 52.2 227 33.9 215 33.9 205.2 48.2C204.2 49.7 203.2 51.3 202.2 52.9L202.1 52.9 202.1 33.9 192.4 33.9 192.4 77ZM192.4 77" fill="#000000"/></g><rect d="M0,0 L0,2 L256,2 L256,0 L0,0 Z M0,0" fill="#F6FCF0" x="0" y="0" width="256" height="2"/></g></svg>