<?xml version="1.0" encoding="utf-8"?>
<!-- Generator: Adobe Illustrator 16.2.1, SVG Export Plug-In . SVG Version: 6.00 Build 0)  -->
<!DOCTYPE svg PUBLIC "-//W3C//DTD SVG 1.1//EN" "http://www.w3.org/Graphics/SVG/1.1/DTD/svg11.dtd">
<svg version="1.1" id="Layer_1" xmlns="http://www.w3.org/2000/svg" xmlns:xlink="http://www.w3.org/1999/xlink" x="0px" y="0px"
	 width="32px" height="32px" viewBox="-285.613 414.685 32 32" enable-background="new -285.613 414.685 32 32"
	 xml:space="preserve">
<linearGradient id="SVGID_1_" gradientUnits="userSpaceOnUse" x1="-269.6814" y1="416.0449" x2="-269.6814" y2="445.5063">
	<stop  offset="0" style="stop-color:#E6E6E6"/>
	<stop  offset="0.5186" style="stop-color:#DBDBDB"/>
	<stop  offset="0.5434" style="stop-color:#C4C4C4"/>
	<stop  offset="1" style="stop-color:#C4C4C4"/>
</linearGradient>
<path fill="url(#SVGID_1_)" d="M-259.741,444.995c-2.519-0.609-5.035-1.286-7.682-2.065c-7.216-6.002-12.918-12.514-16.949-19.353
	c-0.043-0.075-0.051-0.161-0.024-0.259c0.049-0.179,0.198-0.35,0.406-0.463c3.376-1.842,6.837-3.797,10.282-5.813
	c0.126-0.077,0.26-0.115,0.385-0.115c0.126,0,0.226,0.04,0.267,0.11c3.61,5.867,8.626,11.45,14.91,16.592
	c0.972,1.944,2.046,3.864,3.196,5.708C-256.431,441.134-258.001,442.986-259.741,444.995z M-261.323,437.159
	c-0.392,0-0.792,0.123-1.158,0.355c-0.501,0.317-0.833,0.849-0.884,1.426c-0.053,0.575,0.165,1.117,0.612,1.53
	c0.445,0.408,1.055,0.644,1.671,0.644c0.598,0,1.126-0.216,1.447-0.593c0.681-0.792,0.38-1.915-0.188-2.625
	C-260.205,437.421-260.738,437.159-261.323,437.159z"/>
<path fill="#FFFFFF" d="M-259.741,445.995c-0.078,0-0.157-0.009-0.235-0.028c-2.529-0.611-5.057-1.291-7.729-2.078
	c-0.131-0.038-0.252-0.103-0.357-0.19c-7.303-6.074-13.08-12.673-17.171-19.613c-0.18-0.315-0.224-0.676-0.128-1.027
	c0.123-0.446,0.448-0.838,0.893-1.08c3.403-1.856,6.854-3.808,10.255-5.799c0.676-0.411,1.652-0.271,2.019,0.35
	c3.543,5.759,8.486,11.257,14.682,16.326c0.109,0.09,0.198,0.201,0.261,0.327c0.963,1.926,2.022,3.818,3.15,5.626
	c0.227,0.364,0.196,0.834-0.077,1.165c-1.47,1.783-3.042,3.641-4.807,5.678C-259.178,445.872-259.455,445.995-259.741,445.995z
	 M-266.943,442.028c2.359,0.692,4.607,1.3,6.845,1.851c1.415-1.639,2.705-3.161,3.92-4.627c-0.982-1.612-1.911-3.285-2.767-4.984
	c-6.095-5.012-11.01-10.442-14.618-16.152c-3.211,1.875-6.45,3.705-9.65,5.455C-279.294,430.072-273.821,436.282-266.943,442.028z
	 M-261.082,442.114c-0.863,0-1.718-0.33-2.347-0.906c-0.684-0.631-1.014-1.468-0.932-2.359c0.079-0.88,0.582-1.696,1.345-2.179
	c1.332-0.848,3.021-0.582,3.972,0.6c0.819,1.024,1.219,2.681,0.167,3.904C-259.385,441.771-260.19,442.114-261.082,442.114z
	 M-261.323,438.159c-0.201,0-0.416,0.069-0.622,0.199c-0.242,0.153-0.4,0.404-0.424,0.671c-0.024,0.267,0.075,0.504,0.294,0.706
	c0.468,0.43,1.396,0.469,1.679,0.138c0.333-0.387,0.058-1.021-0.208-1.353C-260.735,438.357-260.969,438.159-261.323,438.159z"/>
<linearGradient id="SVGID_2_" gradientUnits="userSpaceOnUse" x1="-285.0339" y1="445.7588" x2="-253.6125" y2="445.7588">
	<stop  offset="0" style="stop-color:#6E6E6E;stop-opacity:0"/>
	<stop  offset="0.8165" style="stop-color:#6E6E6E"/>
	<stop  offset="1" style="stop-color:#6E6E6E;stop-opacity:0"/>
</linearGradient>
<rect x="-285.034" y="445.413" fill="url(#SVGID_2_)" width="31.421" height="0.691"/>
<g>
	<path fill="#666666" d="M-273.324,416.866c0.145,0,0.268,0.047,0.322,0.136c3.607,5.867,8.622,11.447,14.906,16.585
		c0.979,1.962,2.062,3.896,3.224,5.755c-1.497,1.816-3.084,3.691-4.847,5.725c-2.537-0.613-5.069-1.292-7.737-2.08
		c-7.227-6.01-12.936-12.528-16.972-19.378c-0.052-0.089-0.062-0.191-0.031-0.308c0.053-0.196,0.213-0.379,0.435-0.503
		c3.377-1.84,6.836-3.795,10.282-5.813C-273.606,416.905-273.455,416.866-273.324,416.866 M-261.082,441.051
		c0.579,0,1.088-0.208,1.398-0.571c0.659-0.763,0.363-1.853-0.189-2.543c-0.37-0.46-0.902-0.702-1.46-0.702
		c-0.374,0-0.758,0.108-1.113,0.334c-0.485,0.308-0.805,0.823-0.855,1.378c-0.051,0.556,0.16,1.079,0.593,1.478
		C-262.275,440.824-261.682,441.051-261.082,441.051 M-273.324,415.866c-0.315,0-0.644,0.091-0.924,0.257
		c-3.42,2.003-6.871,3.954-10.253,5.797c-0.473,0.264-0.797,0.659-0.922,1.119c-0.101,0.376-0.053,0.758,0.134,1.076
		c4.096,6.95,9.881,13.558,17.195,19.64c0.105,0.087,0.226,0.152,0.356,0.19c2.646,0.781,5.192,1.466,7.785,2.093
		c0.078,0.02,0.157,0.028,0.235,0.028c0.286,0,0.563-0.123,0.756-0.345c1.768-2.04,3.358-3.919,4.862-5.744
		c0.273-0.331,0.304-0.801,0.077-1.166c-1.141-1.825-2.209-3.733-3.177-5.671c-0.063-0.127-0.152-0.238-0.262-0.328
		c-6.196-5.064-11.137-10.561-14.687-16.334C-272.385,416.095-272.824,415.866-273.324,415.866L-273.324,415.866z M-261.082,440.051
		c-0.354,0-0.699-0.132-0.948-0.361c-0.206-0.189-0.298-0.408-0.276-0.652c0.022-0.245,0.173-0.483,0.395-0.624
		c0.185-0.117,0.384-0.179,0.578-0.179c0.269,0,0.51,0.117,0.681,0.329c0.241,0.301,0.514,0.913,0.212,1.263
		C-260.56,439.967-260.804,440.051-261.082,440.051L-261.082,440.051z"/>
</g>
<radialGradient id="SVGID_3_" cx="-270.2444" cy="430.8984" r="14.5073" gradientTransform="matrix(0.7102 -0.704 1.4538 1.4664 -704.7481 -391.2307)" gradientUnits="userSpaceOnUse">
	<stop  offset="0" style="stop-color:#FFFFFF;stop-opacity:0"/>
	<stop  offset="1" style="stop-color:#FFFFFF"/>
</radialGradient>
<path fill="url(#SVGID_3_)" d="M-259.741,444.995c-2.519-0.609-5.035-1.286-7.682-2.065c-7.216-6.002-12.918-12.514-16.949-19.353
	c-0.043-0.075-0.051-0.161-0.024-0.259c0.049-0.179,0.198-0.35,0.406-0.463c3.376-1.842,6.837-3.797,10.282-5.813
	c0.126-0.077,0.26-0.115,0.385-0.115c0.126,0,0.226,0.04,0.267,0.11c3.61,5.867,8.626,11.45,14.91,16.592
	c0.972,1.944,2.046,3.864,3.196,5.708C-256.431,441.134-258.001,442.986-259.741,444.995z M-261.323,437.159
	c-0.392,0-0.792,0.123-1.158,0.355c-0.501,0.317-0.833,0.849-0.884,1.426c-0.053,0.575,0.165,1.117,0.612,1.53
	c0.445,0.408,1.055,0.644,1.671,0.644c0.598,0,1.126-0.216,1.447-0.593c0.681-0.792,0.38-1.915-0.188-2.625
	C-260.205,437.421-260.738,437.159-261.323,437.159z"/>
</svg>
