<svg xmlns="http://www.w3.org/2000/svg" width="256" height="160" viewBox="0" version="1.1"><defs><linearGradient x1="50%" y1="0%" x2="50%" y2="100%" id="lg1"><stop stop-color="#FAFAFA" offset="0"/><stop stop-color="#E0E0E0" offset="100%"/></linearGradient></defs><g stroke="none" stroke-width="1" fill="none" fill-rule="evenodd"><rect d="M0,0 L0,160 L256,160 L256,0 L0,0 Z M0,0" fill="url(#lg1)" x="0" y="0" width="256" height="160"/><g transform="translate(54.000000, 14.000000)" fill="#FFFFFF"><path d="M17 75L42 75 42 116 17 116 17 116 17 75 17 75ZM17 75"/><path d="M44 55C44 62.7 37.7 69 30 69 22.3 69 16 62.7 16 55 16 47.3 22.3 41 30 41 37.7 41 44 47.3 44 55"/><path d="M86.9 9C104 9 118.3 13.6 128.2 22.4 139.3 32.3 145 47.3 145 67 145 106 126 125 86.9 125L9 125 9 9 86.9 9C86.9 9 83.8 9 86.9 9L86.9 9 86.9 9ZM88.5 0L0 0 0 134 88.5 134 88.5 134C107.9 133.7 123.2 128.9 134.1 119.7 147.3 108.5 154 90.7 154 67 154 55.7 152.2 45.5 148.8 36.8 145.4 28.4 140.5 21.3 134.1 15.7 122.9 5.7 107.2 0.3 88.5 0L88.5 0 88.5 0ZM88.5 0"/><path d="M136.8 63.3C134.3 29.3 107.9 20 83.1 20L84.3 20 53 20 53 117 84.3 117 83.1 117C109.2 117 137 109.1 137 68.6 137 68.4 137 68.1 137 67.9L137.2 67.9 137.2 63.3 136.8 63.3ZM58.3 46.5L58.3 63.4 63.2 63.4C65.8 63.4 67.6 62.2 68.6 59.6 69.1 58.2 69.4 56.6 69.4 54.7 69.4 52.1 69 50 68.2 48.6 67.4 47.2 65.7 46.5 63.2 46.5L58.3 46.5ZM68.2 42.6C70 43.2 71.5 44.3 72.6 45.8 73.5 47.1 74.1 48.5 74.4 50 74.8 51.5 74.9 53 74.9 54.3 74.9 57.8 74.2 60.7 72.8 63.1 71 66.3 68.1 67.9 64.2 67.9L53 67.9 53 42 64.2 42C65.8 42 67.1 42.2 68.2 42.6 68.2 42.6 67.1 42.2 68.2 42.6ZM93.6 46.6L80.1 46.6 80.1 52.1 92.5 52.1 92.5 56.6 80.1 56.6 80.1 63.3 94.2 63.3 94.2 67.9 74.9 67.9 74.9 42 93.6 42 93.6 46.6ZM103.1 58.1L109.7 58.1 106.4 47.9 103.1 58.1ZM103.4 42L109.5 42 118.7 67.9 112.8 67.9 111.2 62.6 101.6 62.6 99.8 67.9 94.2 67.9 103.4 42ZM136.8 63.3C136.9 64.8 137 66.3 137 67.9L119 67.9 119 42 124.4 42 124.4 63.3 136.8 63.3ZM136.8 63.3"/></g><g transform="translate(54.000000, 12.000000)"><path d="M17 75L42 75 42 116 17 116 17 116 17 75 17 75ZM17 75" fill="#0A0B09"/><path d="M44 55C44 62.7 37.7 69 30 69 22.3 69 16 62.7 16 55 16 47.3 22.3 41 30 41 37.7 41 44 47.3 44 55" fill="#0A0B09"/><path d="M86.9 9C104 9 118.3 13.6 128.2 22.4 139.3 32.3 145 47.3 145 67 145 106 126 125 86.9 125L9 125 9 9 86.9 9C86.9 9 83.8 9 86.9 9L86.9 9 86.9 9ZM88.5 0L0 0 0 134 88.5 134 88.5 134C107.9 133.7 123.2 128.9 134.1 119.7 147.3 108.5 154 90.7 154 67 154 55.7 152.2 45.5 148.8 36.8 145.4 28.4 140.5 21.3 134.1 15.7 122.9 5.7 107.2 0.3 88.5 0L88.5 0 88.5 0ZM88.5 0" fill="#0A0B09"/><path d="M136.8 63.3C134.3 29.3 107.9 20 83.1 20L84.3 20 53 20 53 117 84.3 117 83.1 117C109.2 117 137 109.1 137 68.6 137 68.4 137 68.1 137 67.9L137.2 67.9 137.2 63.3 136.8 63.3ZM58.3 46.5L58.3 63.4 63.2 63.4C65.8 63.4 67.6 62.2 68.6 59.6 69.1 58.2 69.4 56.6 69.4 54.7 69.4 52.1 69 50 68.2 48.6 67.4 47.2 65.7 46.5 63.2 46.5L58.3 46.5ZM68.2 42.6C70 43.2 71.5 44.3 72.6 45.8 73.5 47.1 74.1 48.5 74.4 50 74.8 51.5 74.9 53 74.9 54.3 74.9 57.8 74.2 60.7 72.8 63.1 71 66.3 68.1 67.9 64.2 67.9L53 67.9 53 42 64.2 42C65.8 42 67.1 42.2 68.2 42.6 68.2 42.6 67.1 42.2 68.2 42.6ZM93.6 46.6L80.1 46.6 80.1 52.1 92.5 52.1 92.5 56.6 80.1 56.6 80.1 63.3 94.2 63.3 94.2 67.9 74.9 67.9 74.9 42 93.6 42 93.6 46.6ZM103.1 58.1L109.7 58.1 106.4 47.9 103.1 58.1ZM103.4 42L109.5 42 118.7 67.9 112.8 67.9 111.2 62.6 101.6 62.6 99.8 67.9 94.2 67.9 103.4 42ZM136.8 63.3C136.9 64.8 137 66.3 137 67.9L119 67.9 119 42 124.4 42 124.4 63.3 136.8 63.3ZM136.8 63.3" fill="#B9215E"/></g></g></svg>