<svg xmlns="http://www.w3.org/2000/svg" width="256" height="160" viewBox="0" version="1.1"><defs><linearGradient x1="50%" y1="0%" x2="50%" y2="100%" id="lg1"><stop stop-color="#FAFAFA" offset="0%"/><stop stop-color="#E0E0E0" offset="100%"/></linearGradient><linearGradient x1="0%" y1="50%" x2="100%" y2="50%" id="lg2"><stop stop-color="#007B40" offset="0%"/><stop stop-color="#55B330" offset="100%"/></linearGradient><linearGradient x1="0%" y1="50%" x2="100%" y2="50%" id="lg3"><stop stop-color="#1D2970" offset="0%"/><stop stop-color="#006DBA" offset="100%"/></linearGradient><linearGradient x1="0%" y1="50%" x2="100%" y2="50%" id="lg4"><stop stop-color="#6E2B2F" offset="0%"/><stop stop-color="#E30138" offset="100%"/></linearGradient></defs><g stroke="none" stroke-width="1" fill="none" fill-rule="evenodd"><rect d="M0,0 L0,160 L256,160 L256,0 L0,0 Z M0,0" fill="url(#lg1)" x="0" y="0" width="256" height="160"/><path d="M170 82L182.3 82C184.4 82 186.2 83 187.3 84.9 188.4 86.6 188.3 89.4 186.8 90.9 186.8 91.3 185.8 91.9 185.6 92.1 185.2 92.1 184.7 92.7 184.3 92.7 183.9 92.7 183.7 92.9 183.3 92.9 182.9 92.9 182.4 93 182 93L179.5 93 174.5 93 171.3 93C171.2 93 170 93 170 93L170 91.7 170 82 170 82 170 82 170 82 170 82ZM186.9 69.8C187.8 73.5 184.6 76 181.4 76L171.4 76 170.2 76C169.9 76 170 75.8 170 75.5L170 71.5 170 67 170 66C170 65.9 170.8 66 170.9 66L178.9 66C180.1 66 181.5 65.9 182.7 66.1 183 66.1 183.4 66.3 183.7 66.4 184.1 66.4 184.4 66.9 184.8 66.9 185 67 185.8 67.6 185.8 67.8 186.4 68.4 186.5 69.1 186.9 69.8 186.9 69.8 186.8 69.6 186.9 69.8L186.9 69.8 186.9 69.8 186.9 69.8 186.9 69.8ZM211.9 17C212.3 17.1 212 21 212 21.5L212 33.6 212 70.3 212 106.6 212 118.2C212 120.5 212.1 122.9 211.8 125.2 211.6 126.3 211.3 127.3 211 128.4 210.9 129 210.6 129.5 210.4 130 210.3 130.5 209.7 131.2 209.7 131.6 209.5 131.8 209.1 132.5 209.1 132.7 208.9 132.9 208.5 133.4 208.5 133.7 208 134.2 207.6 134.9 207.1 135.4 205.6 137 204 138.8 202 139.8 201.2 140.3 200.4 140.8 199.5 141.2 199.1 141.2 198.7 141.7 198.3 141.7 197.8 141.9 197.4 141.9 197 142.2 196.6 142.3 196 142.4 195.6 142.5 195.2 142.6 194.7 142.7 194.3 142.7 193.9 142.7 193.5 142.9 193.1 142.9 192.6 142.9 192.2 143 191.8 143 188.6 143.2 185.3 143 182 143L172 143 162 143C161.8 143 160 143 160 143L160 141.9 160 136.3 160 102.1 160 100.5C160 100 160.4 100.2 160.9 100.2L165.9 100.2 175.9 100.2 185.9 100.2 190.9 100.2 193.2 100.2C193.9 100.2 195 100.2 195.7 100 196.5 99.7 197.5 99.6 198.3 99.4 198.4 99.3 199.3 98.9 199.5 98.9 199.9 98.9 200.5 98.4 200.8 98.3 201.3 98.1 201.6 97.7 202 97.5 202.3 97.4 202.5 97.2 202.7 97 202.8 96.9 203.2 96.4 203.4 96.4 203.4 96.2 204.4 95.1 204.6 94.9 205.1 94.4 205.8 92.8 205.8 92.1 206.9 88.7 205.3 84.3 202.5 82.5 202.1 82.2 201.7 81.8 201.2 81.6 200.8 81.5 200.4 81 199.9 81 199.4 80.5 198 80.1 197.4 80.1 197 80.1 196.6 79.9 196.2 79.8 195.8 79.7 195.2 79.8 194.9 79.7 194.7 79.6 193.7 79.7 194 79.3 194.1 79.2 195.2 79.2 195.3 79.1 196.2 78.8 197.1 78.5 198 78.2 198.3 78.1 198.9 77.8 199.2 77.5 199.4 77.3 200.5 76.9 200.5 76.5 200.7 76.5 201.7 75.4 201.7 75.2 202.4 74.5 202.6 73.7 203.1 72.9 203.5 71.9 203.6 70.8 203.6 69.7 203.6 69.1 203.6 68.6 203.5 68 203.4 67.4 203 66.8 203 66.2 202.4 65 201.6 63.5 200.4 62.8 199.6 62.2 198.8 61.7 197.9 61.2 197.8 61.2 196.7 60.8 196.7 60.7 196.2 60.7 195.8 60.5 195.3 60.4 194.5 60.1 193.7 60.1 192.8 60 191.3 59.9 189.8 59.8 188.2 59.8L178.2 59.8 168.2 59.8 163.2 59.8 160.7 59.8C159.9 59.8 160 59.8 160 59.1L160 42.2C160 40.3 159.9 38.4 160.1 36.5 160.2 35.2 160.3 33.8 160.7 32.6 160.9 32.1 160.9 31.6 161.2 31.2 161.5 30.7 161.5 29.8 161.9 29.4 161.9 28.8 162.7 27.5 163.1 27.1 163.4 26.8 163.4 26.4 163.7 26.1 163.9 25.9 164.2 25.5 164.4 25.2 164.6 24.7 165.1 24.4 165.4 24 165.7 23.6 166.1 23.2 166.4 22.9 167.1 22.4 167.8 21.8 168.4 21.2 169 20.7 169.8 20.5 170.3 20 170.6 19.7 172.4 19.1 172.4 18.8 173 18.8 174 18.2 174.7 18 175 17.9 175.4 17.7 175.7 17.7 176 17.6 176.5 17.6 176.8 17.5 177.3 17.2 178.3 17.1 178.9 17.1 179.6 17.1 180.2 17 181 17L201 17C204.6 17 208.3 17 211.9 17L211.9 17 211.9 17 211.9 17 211.9 17ZM211.9 17" fill="url(#lg2)"/><path d="M43.4 90.1C43 89.7 43 90 43 89.4L43 87.7 43 81.7 43 63.4 43 45.3C43 41.9 42.8 38.5 43.2 35.1 43.5 32.8 44.2 30.3 45.4 28.3 46.1 27.1 46.8 25.6 47.9 24.5 48 24.5 49.1 23.3 49.1 23.2 49.5 22.8 49.9 22.3 50.4 22 51.2 21.5 52.3 20.8 53 20.1 53.3 20.1 54 19.6 54.2 19.4 54.7 19.4 55.1 18.8 55.5 18.8 55.9 18.8 56.3 18.3 56.7 18.3 57.1 18.3 57.6 17.9 58 17.9 58.8 17.9 59.7 17.3 60.5 17.3 61.3 17.1 62.2 17 63 17L64 17 84 17 94 17C95.1 17 95 16.9 95 17.8L95 20.8 95 49.2 95 88.3 95 117.5C95 119.3 95.1 121 95 122.8 94.9 124.1 94.8 125.6 94.4 126.9 94.4 128 93.7 129.2 93.3 130.2 93 131.1 92.5 131.9 92.1 132.6 91.9 133 91.7 133.3 91.5 133.6 91.3 133.8 90.8 134.5 90.8 134.6 89.9 135.5 89.1 136.6 88.2 137.4 87.9 137.8 87.4 138.1 87 138.4 86.8 138.7 86 139.4 85.7 139.4 85 140.1 83.6 140.8 82.7 141.1 81.7 141.4 80.8 141.9 79.8 142.2 77.9 142.7 76 143 73.9 143L53.9 143 43.9 143C43.4 143 43 143.2 43 142.7L43 141.1 43 134.7 43 100.5 43 98.7C43.3 98.9 44 99.1 44.4 99.1 44.9 99.1 45.3 99.3 45.7 99.4 46.1 99.5 46.5 99.5 46.9 99.6 47.3 99.7 47.9 99.7 48.2 99.8 48.8 100.2 50 100.2 50.7 100.3 51.5 100.4 52.4 100.5 53.2 100.6 56.5 101.1 59.8 101.3 63.2 101.3 63.7 101.3 64.2 101.5 64.6 101.4 65 101.4 65.4 101.3 65.8 101.3L67.1 101.3C67.9 101.3 68.8 101.3 69.6 101.2 70.4 101.1 71.3 101 72.1 100.9 72.8 100.8 73.9 100.9 74.6 100.6 75.3 100.2 76.4 100.5 77.1 100 77.3 99.9 78 99.7 78.3 99.7 78.7 99.7 79.1 99.3 79.6 99.3 80 99.3 80.5 98.9 80.8 98.8 81.2 98.6 81.7 98.5 82.1 98.2 83 97.7 84 97.4 84.7 96.7 85.5 96.1 86.7 95.4 87.2 94.4 87.5 93.9 88.1 93.4 88.4 92.8 88.9 92.1 89.7 90.9 89.7 90 90.8 87.7 90.7 84.9 90.7 82.4L90.7 64.7 90.7 59.8C90.7 59.8 86.5 59.8 86.1 59.8L76.1 59.8 73.6 59.8C73 59.8 72.5 59.5 72.5 60.2L72.5 66.6 72.5 83.4C72.5 86.2 72 89.2 70 91.2 68.6 92.6 66.9 93.6 65 94.1 64.6 94.1 64.1 94.4 63.7 94.4 63.3 94.5 62.9 94.5 62.4 94.5 61.7 94.5 60.9 94.7 60.1 94.6 59.3 94.5 58.4 94.4 57.6 94.4 56.8 94.4 55.9 94 55.1 94 54.2 94 53.1 93.5 52.2 93.3 51.2 93.1 50.2 92.8 49.3 92.5 47.3 91.8 45.3 91 43.4 90.1L43.4 90.1 43.4 90.1 43.4 90.1 43.4 90.1ZM43.4 90.1" fill="url(#lg3)"/><path d="M102.4 65.1L102 65.5 102 38.1C102 34.4 102.9 30.4 105 27.3 106 25.8 106.9 24.4 108.2 23.1 108.5 22.8 108.8 22.5 109.1 22.3 109.4 22 109.8 21.8 110.1 21.5 110.6 21 111.4 20.4 112.1 20 113 19.6 113.9 19.2 114.7 18.7 115.6 18.3 116.5 18.1 117.5 17.8 119.3 17.3 121.1 17 123 17L143 17 153 17C154.1 17 154 16.9 154 17.8L154 20.8 154 49.2 154 88.3 154 117.5C154 119 154.1 120.6 154 122.1 153.7 126.2 152.9 130.1 150.5 133.6 146.7 139.4 139.9 143 133.1 143L132.9 143 112.9 143 102.9 143C102.4 143 102 143.2 102 142.7L102 141.2 102 135.3 102 99.4 102 94.5C103.2 95.7 104.8 96.5 106.3 97.4 107.1 97.9 108 98.1 108.8 98.5 109.6 98.9 110.5 99 111.3 99.4 111.7 99.5 112.1 99.5 112.5 99.7 112.9 99.9 113.4 99.9 113.8 100 114.6 100.2 115.5 100.5 116.3 100.5 117.1 100.5 118 100.9 118.8 100.9 119.6 100.9 120.5 101 121.3 101.1 124.6 101.4 128 101.5 131.3 101.3 132.9 101.2 134.5 100.9 136.1 100.9 137.8 100.9 139.4 100.2 141.1 100.2 141.7 100.2 142.2 99.9 142.8 99.9 143.3 99.9 144 99.7 144.5 99.6 145.1 99.5 145.6 99.2 146.2 99.2 146.5 99.2 147.6 99 147.9 98.8 148.3 98.5 148.1 98 148.1 97.5L148.1 94.5 148.1 89.9C146.5 90.7 144.8 91.5 143.1 92.1 142.3 92.4 141.4 92.7 140.6 92.9 139.8 93.1 138.9 93.6 138.1 93.6 137.3 93.6 136.5 94.1 135.6 94.1 134.8 94.1 133.9 94.3 133.1 94.4 131.5 94.6 129.9 94.5 128.3 94.5 127.4 94.5 126.6 94.3 125.8 94.2 125.4 94.1 125 94.1 124.6 94 124.2 93.9 123.7 93.6 123.3 93.6 122.5 93.6 121.5 92.9 120.8 92.6 120.1 92.2 119.2 91.7 118.6 91.2 117.4 89.9 116 88.7 115.4 87 114.6 85.1 114.1 83.2 114 81.1 113.7 77.1 114.6 72.9 117.5 70 120 67.5 123.2 65.9 126.6 65.6 133.4 64.9 140.3 66.3 146.4 69.4 146.9 69.6 147.5 69.8 148.1 70.1L148.1 62.7 148.1 61.4C148.1 61.1 147.5 61.2 147.3 61.1 146.5 60.9 145.6 60.5 144.8 60.5 144.5 60.5 143.9 60.4 143.6 60.3 143.2 60.1 142.7 60.2 142.3 60 141.5 59.8 140.6 59.8 139.8 59.6 138.2 59.3 136.4 59 134.8 59 133.2 59 131.6 58.7 130 58.7L125 58.7C121.6 58.7 118.2 59.1 115 59.7 112.8 60.1 110.6 60.8 108.5 61.6 107.4 62.1 106.3 62.7 105.2 63.3 104.7 63.5 104.3 63.9 103.8 64.2 103.3 64.4 102.9 64.9 102.4 65.1L102.4 65.1 102.4 65.1 102.4 65.1 102.4 65.1ZM102.4 65.1" fill="url(#lg4)"/></g></svg>