<svg xmlns="http://www.w3.org/2000/svg" width="256" height="160" viewBox="0" version="1.1"><defs><linearGradient x1="50%" y1="0" x2="50%" y2="100%" id="lg1"><stop stop-color="#2D68A3" offset="0%"/><stop stop-color="#1D2969" offset="100%"/></linearGradient></defs><g stroke="none" stroke-width="1" fill="none" fill-rule="evenodd"><rect d="M0,0 L0,160 L256,160 L256,0 L0,0 Z M0,0" fill="url(#lg1)" x="0" y="0" width="256" height="160"/><rect d="M0,0 L0,2 L256,2 L256,0 L0,0 Z M0,0" fill="#95B2D0" x="0" y="0" width="256" height="2"/><g transform="translate(22.000000, 18.000000)" fill="#FFFFFF"><path d="M212 63.5C212.01 98.56 183.59 126.99 148.52 127 113.44 127.01 85.01 98.59 85 63.53L85 63.5C84.99 28.44 113.41 0.01 148.48 0 183.55-0.01 211.99 28.41 212 63.47 212 63.47 211.99 28.41 212 63.47L212 63.5 212 63.5ZM212 63.5"/><path d="M63.09 0C28.23 0.22 0 28.59 0 63.5 0 98.55 28.45 127 63.5 127 79.95 127 94.95 120.73 106.23 110.45 106.23 110.45 106.23 110.45 106.23 110.45L106.24 110.45C108.55 108.35 110.71 106.07 112.69 103.65L99.68 103.65C97.94 101.55 96.36 99.37 94.94 97.11L117.38 97.11C118.74 94.93 119.98 92.66 121.08 90.31L91.24 90.31C90.22 88.13 89.34 85.9 88.58 83.64L123.73 83.64C125.85 77.31 127 70.54 127 63.5 127 58.83 126.49 54.28 125.54 49.9L86.72 49.9C87.2 47.65 87.81 45.42 88.53 43.23L123.69 43.23C122.91 40.9 121.99 38.63 120.96 36.43L91.23 36.43C92.31 34.14 93.52 31.91 94.88 29.76L117.3 29.76C115.81 27.38 114.15 25.11 112.37 22.96L99.87 22.96C101.8 20.69 103.93 18.55 106.24 16.55 94.95 6.27 79.95 0 63.5 0 63.36 0 63.230 63.09 0"/></g><g transform="translate(22.000000, 16.000000)"><path d="M212 63.5C212.01 98.56 183.59 126.99 148.52 127 113.44 127.01 85.01 98.59 85 63.53L85 63.5C84.99 28.44 113.41 0.01 148.48 0 183.55-0.01 211.99 28.41 212 63.47 212 63.47 211.99 28.41 212 63.47L212 63.5 212 63.5ZM212 63.5" fill="#FF9900"/><path d="M63.09 0C28.23 0.22 0 28.59 0 63.5 0 98.55 28.45 127 63.5 127 79.95 127 94.95 120.73 106.23 110.45 106.23 110.45 106.23 110.45 106.23 110.45L106.24 110.45C108.55 108.35 110.71 106.07 112.69 103.65L99.68 103.65C97.94 101.55 96.36 99.37 94.94 97.11L117.38 97.11C118.74 94.93 119.98 92.66 121.08 90.31L91.24 90.31C90.22 88.13 89.34 85.9 88.58 83.64L123.73 83.64C125.85 77.31 127 70.54 127 63.5 127 58.83 126.49 54.28 125.54 49.9L86.72 49.9C87.2 47.65 87.81 45.42 88.53 43.23L123.69 43.23C122.91 40.9 121.99 38.63 120.96 36.43L91.23 36.43C92.31 34.14 93.52 31.91 94.88 29.76L117.3 29.76C115.81 27.38 114.15 25.11 112.37 22.96L99.87 22.96C101.8 20.69 103.93 18.55 106.24 16.55 94.95 6.27 79.95 0 63.5 0 63.36 0 63.230 63.09 0" fill="#CC0000"/></g><g transform="translate(26.000000, 66.000000)" fill="#010553"><path d="M80.11 32.1L80.93 26.29C80.49 26.29 79.83 26.49 79.25 26.49 76.97 26.49 76.72 25.23 76.87 24.29L78.7 12.43 82.16 12.43 83 6 79.74 6 80.4 2 73.86 2C73.72 2.15 70 24.49 70 27.21 70 31.23 72.16 33.03 75.21 33 77.6 32.98 79.46 32.29 80.11 32.1"/><path d="M94.07 12C97.61 12 96.95 16.63 96.95 17L90 17C90 16.52 90.66 12 94.07 12M83 21.36C83 30.76 89.17 33 94.42 33 99.27 33 101.41 31.91 101.41 31.91L102.57 25.49C102.57 25.49 98.88 27.13 95.55 27.13 88.45 27.13 89.69 21.8 89.69 21.8L103.13 21.8C103.13 21.8 104 17.49 104 15.73 104 11.34 101.83 6 94.57 6 87.92 6 83 13.21 83 21.36"/><path d="M137.07 33.06L138.28 25.58C138.28 25.58 134.97 27.26 132.69 27.26 127.9 27.26 125.97 23.55 125.97 19.55 125.97 11.45 130.1 6.99 134.69 6.99 138.13 6.99 140.9 8.95 140.9 8.95L142 1.68C142 1.68 137.9 0 134.39 0 126.59 0 119 6.87 119 19.79 119 28.35 123.1 34 131.16 34 133.44 34 137.07 33.06 137.07 33.06"/><path d="M44.99 21.17C45.11 22.37 44.32 28 40.49 28 38.51 28 38 26.31 38 25.3 38 23.35 38.95 21 43.61 21 44.69 21 44.81 21.13 44.99 21.17M43.65 6C38.98 6 35.41 7.47 35.41 7.47L34.42 13.23C34.42 13.23 37.37 12.06 41.83 12.06 44.37 12.06 46.22 12.34 46.22 14.36 46.22 15.59 46 16.04 46 16.04 46 16.04 44 15.88 43.07 15.88 37.18 15.88 31 18.35 31 25.79 31 31.65 35.06 33 37.57 33 42.37 33 44.45 29.94 44.56 29.93L44.33 32.48 50.33 32.48 53 14.06C53 6.25 46.06 6 43.65 6"/><path d="M58.61 33C60.14 33 68.87 33.38 68.87 24.44 68.87 16.08 60.79 17.73 60.79 14.37 60.79 12.7 62.1 12.17 64.51 12.17 65.47 12.17 69.14 12.47 69.14 12.47L70 6.53C70 6.53 67.62 6 63.74 6 58.73 6 53.64 7.99 53.64 14.79 53.64 22.5 62.13 21.72 62.13 24.97 62.13 27.13 59.75 27.31 57.93 27.31 54.76 27.31 51.91 26.23 51.9 26.29L51 32.17C51.16 32.22 52.92 33 58.61 33"/><path d="M190 17.63C190 21.21 188.23 26 184.57 26 182.14 26 181 23.95 181 20.73 181 15.47 183.35 12 186.32 12 188.75 12 190 13.68 190 17.63L190 17.63ZM193.25 0.01L191.8 9.18C191.8 9.18 189.27 5.62 185.3 5.62 179.14 5.62 174 13.19 174 21.89 174 27.5 176.74 33 182.34 33 186.38 33 188.61 30.14 188.61 30.14L188.31 32.58 194.86 32.58 200 0 200 0 193.25 0.01 193.25 0.01ZM193.25 0.01"/><path d="M6.52 32L10.64 7.87 11.24 32 15.9 32 24.59 7.87 20.74 32 27.67 32 33 0 22.29 0 15.63 19.63 15.28 0 5.41 0 0 32 0 32 6.52 32 6.52 32ZM6.52 32"/><path d="M110.74 33C112.65 21.62 113 12.37 117.56 14.06 118.36 9.66 119.13 7.95 120 6.09 120 6.09 119.59 6 118.73 6 115.8 6 113.62 10.21 113.62 10.21L114.2 6.34 108.09 6.34 104 33 104 33 110.74 33 110.74 33ZM110.74 33"/><path d="M153.99 21.17C154.11 22.37 153.32 28 149.49 28 147.51 28 147 26.31 147 25.3 147 23.35 147.95 21 152.6 21 153.69 21 153.8 21.13 153.99 21.17M152.65 6C147.98 6 144.4 7.47 144.4 7.47L143.42 13.23C143.42 13.23 146.37 12.06 150.84 12.06 153.37 12.06 155.22 12.34 155.22 14.36 155.22 15.59 155 16.04 155 16.04 155 16.04 153 15.88 152.07 15.88 146.18 15.88 140 18.35 140 25.79 140 31.65 144.06 33 146.57 33 151.37 33 153.44 29.94 153.56 29.93L153.33 32.48 159.33 32.48 162 14.06C162 6.25 155.06 6 152.65 6"/><path d="M167.74 33C169.65 21.62 170 12.37 174.56 14.06 175.36 9.66 176.13 7.95 177 6.09 177 6.09 176.59 6 175.73 6 172.8 6 170.62 10.21 170.62 10.21L171.2 6.34 165.09 6.34 161 33 161 33 167.74 33 167.74 33ZM167.74 33"/></g><g transform="translate(28.000000, 64.000000)" fill="#FFFFFF"><path d="M80.11 32.1L80.93 26.29C80.49 26.29 79.83 26.49 79.25 26.49 76.97 26.49 76.72 25.23 76.87 24.29L78.7 12.43 82.16 12.43 83 6 79.74 6 80.4 2 73.86 2C73.72 2.15 70 24.49 70 27.21 70 31.23 72.16 33.03 75.21 33 77.6 32.98 79.46 32.29 80.11 32.1"/><path d="M94.07 12C97.61 12 96.95 16.63 96.95 17L90 17C90 16.52 90.66 12 94.07 12M83 21.36C83 30.76 89.17 33 94.42 33 99.27 33 101.41 31.91 101.41 31.91L102.57 25.49C102.57 25.49 98.88 27.13 95.55 27.13 88.45 27.13 89.69 21.8 89.69 21.8L103.13 21.8C103.13 21.8 104 17.49 104 15.73 104 11.34 101.83 6 94.57 6 87.92 6 83 13.21 83 21.36"/><path d="M137.07 33.06L138.28 25.58C138.28 25.58 134.97 27.26 132.69 27.26 127.9 27.26 125.97 23.55 125.97 19.55 125.97 11.45 130.1 6.99 134.69 6.99 138.13 6.99 140.9 8.95 140.9 8.95L142 1.68C142 1.68 137.9 0 134.39 0 126.59 0 119 6.87 119 19.79 119 28.35 123.1 34 131.16 34 133.44 34 137.07 33.06 137.07 33.06"/><path d="M44.99 21.17C45.11 22.37 44.32 28 40.49 28 38.51 28 38 26.31 38 25.3 38 23.35 38.95 21 43.61 21 44.69 21 44.81 21.13 44.99 21.17M43.65 6C38.98 6 35.41 7.47 35.41 7.47L34.42 13.23C34.42 13.23 37.37 12.06 41.83 12.06 44.37 12.06 46.22 12.34 46.22 14.36 46.22 15.59 46 16.04 46 16.04 46 16.04 44 15.88 43.07 15.88 37.18 15.88 31 18.35 31 25.79 31 31.65 35.06 33 37.57 33 42.37 33 44.45 29.94 44.56 29.93L44.33 32.48 50.33 32.48 53 14.06C53 6.25 46.06 6 43.65 6"/><path d="M58.61 33C60.14 33 68.87 33.38 68.87 24.44 68.87 16.08 60.79 17.73 60.79 14.37 60.79 12.7 62.1 12.17 64.51 12.17 65.47 12.17 69.14 12.47 69.14 12.47L70 6.53C70 6.53 67.62 6 63.74 6 58.73 6 53.64 7.99 53.64 14.79 53.64 22.5 62.13 21.72 62.13 24.97 62.13 27.13 59.75 27.31 57.93 27.31 54.76 27.31 51.91 26.23 51.9 26.29L51 32.17C51.16 32.22 52.92 33 58.61 33"/><path d="M190 17.63C190 21.21 188.23 26 184.57 26 182.14 26 181 23.95 181 20.73 181 15.47 183.35 12 186.32 12 188.75 12 190 13.68 190 17.63L190 17.63ZM193.25 0.01L191.8 9.18C191.8 9.18 189.27 5.62 185.3 5.62 179.14 5.62 174 13.19 174 21.89 174 27.5 176.74 33 182.34 33 186.38 33 188.61 30.14 188.61 30.14L188.31 32.58 194.86 32.58 200 0 200 0 193.25 0.01 193.25 0.01ZM193.25 0.01"/><path d="M6.52 32L10.64 7.87 11.24 32 15.9 32 24.59 7.87 20.74 32 27.67 32 33 0 22.29 0 15.63 19.63 15.28 0 5.41 0 0 32 0 32 6.52 32 6.52 32ZM6.52 32"/><path d="M110.74 33C112.65 21.62 113 12.37 117.56 14.06 118.36 9.66 119.13 7.95 120 6.09 120 6.09 119.59 6 118.73 6 115.8 6 113.62 10.21 113.62 10.21L114.2 6.34 108.09 6.34 104 33 104 33 110.74 33 110.74 33ZM110.74 33"/><path d="M153.99 21.17C154.11 22.37 153.32 28 149.49 28 147.51 28 147 26.31 147 25.3 147 23.35 147.95 21 152.6 21 153.69 21 153.8 21.13 153.99 21.17M152.65 6C147.98 6 144.4 7.47 144.4 7.47L143.42 13.23C143.42 13.23 146.37 12.06 150.84 12.06 153.37 12.06 155.22 12.34 155.22 14.36 155.22 15.59 155 16.04 155 16.04 155 16.04 153 15.88 152.07 15.88 146.18 15.88 140 18.35 140 25.79 140 31.65 144.06 33 146.57 33 151.37 33 153.44 29.94 153.56 29.93L153.33 32.48 159.33 32.48 162 14.06C162 6.25 155.06 6 152.65 6"/><path d="M167.74 33C169.65 21.62 170 12.37 174.56 14.06 175.36 9.66 176.13 7.95 177 6.09 177 6.09 176.59 6 175.73 6 172.8 6 170.62 10.21 170.62 10.21L171.2 6.34 165.09 6.34 161 33 161 33 167.74 33 167.74 33ZM167.74 33"/></g></g></svg>