<svg xmlns="http://www.w3.org/2000/svg" width="256" height="160" viewBox="0" version="1.1"><defs><linearGradient x1="50%" y1="0%" x2="50%" y2="100%" id="lg1"><stop stop-color="#FFFEFD" offset="0"/><stop stop-color="#FCE6BE" offset="100"/></linearGradient></defs><g stroke="none" stroke-width="1" fill="none" fill-rule="evenodd"><rect d="M0,0 L0,160 L256,160 L256,0 L0,0 Z M0,0" fill="url(#lg1)" x="0" y="0" width="256" height="160"/><g transform="translate(15.000000, 50.000000)" fill="#FFFFFF"><path d="M187.5 38.9C185.7 40 183.6 40.9 181.5 41 180 41.1 177.7 41 176.6 39.7 175.5 38.4 175.9 36 176.8 34.7 177.9 33.1 179.9 32.5 181.7 32.1 182.3 31.9 189.8 30.5 190 31.2 190.2 32.2 189.5 33.8 189.3 34.7 188.9 36.1 188.8 38.1 187.5 38.9 187.5 38.9 187.6 38.8 187.6 38.8 187.6 38.8 187.5 38.9 187.5 38.9L187.5 38.9 187.5 38.9 187.5 38.9 187.5 38.9ZM199.1 14.1C194.8 11.8 189.1 11.8 184.3 12.1 181.6 12.2 178.9 12.5 176.3 13 174.6 13.4 173.1 14 172.5 15.9 172.1 16.9 170.4 21.9 172.7 21.5 173.3 21.4 174 21.1 174.7 20.9 176 20.4 177.4 20.1 178.8 19.9 181.6 19.4 184.4 19.3 187.3 19.7 189.5 20.1 191.5 21 191.5 23.6 191.4 25 189.9 24.8 188.9 24.9 187.4 25 186 25.1 184.5 25.3 179.2 25.9 173.2 26.6 168.6 29.9 164.7 32.8 162.5 38.8 165 43.4 167.5 48 173.8 48.8 178.5 47.5 181.6 46.7 184.1 45.1 186.8 43.4 186.8 43.7 186.6 44.2 186.6 44.5 186.3 45.7 187 46.7 188.1 47 189.6 47.3 191.5 47 193.1 47 194.9 47 196.9 46.8 197.6 44.8 197.8 44.3 197.9 43.8 198 43.3 199.3 37.7 200.7 32.1 202 26.5 202.3 25.4 202.6 24.3 202.8 23.2 203.4 19.5 202.7 16 199.1 14.1 199.1 14.1 202.7 16 199.1 14.1L199.1 14.1 199.1 14.1ZM199.1 14.1"/><path d="M114.9 13C112 13 110.6 15.5 109.3 17.6 107.7 20.3 106 23 104.4 25.7 103 28 101.6 30.3 100.2 32.6 100 32.9 99.8 33.5 99.3 33.5 98.9 33.5 98.8 33.1 98.7 32.8 98.6 31.9 98.4 31 98.3 30.1 97.7 27 97.2 23.8 96.6 20.7 96.4 19.4 96.2 18.2 96 16.9 95.9 16.2 95.8 15.5 95.5 14.9 94.7 13.4 93 13.1 91.3 13.1L86.9 13.1C85.5 13.1 83.7 13.4 83.9 15.3 84 15.7 84.1 16.2 84.2 16.6 85.3 22.7 86.4 28.8 87.5 34.9 88 38.1 88.6 41.2 89.1 44.4 89.4 45.8 89.6 47.1 89.7 48.6 89.7 49.2 89.7 50 89.4 50.6 88 52.9 86.6 55.2 85.2 57.5 84.5 58.7 81.2 63 84.6 63 86.9 63 89.2 63.1 91.5 63 93.7 63 95.2 61.4 96.3 59.7 101.9 50.5 107.6 41.3 113.3 32.2L121.3 19.1C121.8 18.3 122.3 17.5 122.8 16.7 123.2 16 123.7 15.3 123.9 14.4 124.4 12.7 122.6 13 121.5 13 119.3 13 117.1 13 114.9 13"/><path d="M44.7 7.6C42 2.5 35.8 1.4 30.7 1.1 28 1 25.3 1 22.6 1 19.7 1 16.8 1 13.9 1 11.9 1 10.1 1.7 9.5 3.9 7.1 14.2 4.6 24.6 2.1 35 1.6 37.1 1.1 39.3 0.6 41.5 0.3 42.6-0.4 44.3 0.4 45.3 1.2 46.2 2.8 46 3.9 46L8.4 46C10 46 11.7 45.3 12.2 43.5 12.4 42.7 12.6 41.8 12.8 41 13.4 38.6 13.8 36.1 14.5 33.8 15 31.5 17.3 31.3 19.2 31.3 21.7 31.3 24.2 31.2 26.6 30.9 35.9 29.6 45.8 24.3 46 13.7 46 11.6 45.8 9.4 44.7 7.6M30.8 20.8C28.9 22.1 26.4 22.7 24.1 22.9 23.1 23 22.1 23 21.2 23 20.4 23 19.5 23.1 18.8 22.6 17.7 21.7 18.1 20.4 18.3 19.3 18.7 17.8 19.1 16.3 19.4 14.9 19.7 13.8 19.9 12.7 20.2 11.7 20.6 9.8 22.4 9 24.1 9 27.8 9 33.6 9 34 13.8 34.2 16.6 33.1 19.1 30.8 20.8"/><path d="M167.7 7.6C165.1 2.6 159.1 1.5 154 1.1 151.3 0.9 148.5 1 145.8 1L136.9 1C134.9 1 133.1 1.6 132.5 3.9 130.1 14.2 127.6 24.6 125.1 35 124.6 37.2 124.1 39.3 123.6 41.5 123.3 42.6 122.6 44.4 123.5 45.4 124.3 46.3 125.9 46 127 46 128.5 46 129.9 46 131.4 46 133 46 134.7 45.3 135.2 43.5 135.4 42.7 135.6 41.8 135.8 41 136.4 38.6 136.8 36.2 137.5 33.8 138 31.6 140.1 31.3 142 31.3 144.4 31.3 146.8 31.2 149.2 30.9 158.4 29.8 168.5 24.7 169 14.3 169.1 12 168.8 9.6 167.7 7.6M153.8 20.8C151.9 22.2 149.4 22.7 147.1 22.9 146.1 23 145.2 23 144.3 23 143.5 23 142.7 23.1 142 22.7 140.7 22 141 20.6 141.3 19.5 141.6 18 142 16.6 142.3 15.1 142.6 14 142.9 12.9 143.1 11.7 143.6 10 145.1 9 146.8 9 150.3 9 156 8.8 156.9 13.2 157.4 16.1 156.2 19.1 153.8 20.8"/><path d="M65.5 37.9C63.7 39 61.6 39.9 59.5 40 58 40.1 55.7 40 54.6 38.7 53.5 37.4 53.9 35 54.8 33.7 55.9 32.1 57.9 31.5 59.7 31.1 60.3 30.9 67.8 29.5 68 30.2 68.2 31.2 67.5 32.8 67.3 33.7 66.9 35.1 66.8 37.1 65.5 37.9 65.5 37.9 65.6 37.8 65.6 37.8 65.6 37.8 65.5 37.9 65.5 37.9L65.5 37.9 65.5 37.9 65.5 37.9 65.5 37.9ZM77.1 14.1C72.8 11.8 67.1 11.8 62.3 12.1 59.6 12.2 56.9 12.5 54.3 13 52.6 13.4 51.1 14 50.5 15.8 50.1 16.9 48.4 21.9 50.7 21.5 51.3 21.4 52 21.1 52.7 20.9 54 20.4 55.4 20.1 56.8 19.9 59.6 19.4 62.4 19.3 65.3 19.7 67.5 20.1 69.5 21 69.5 23.6 69.4 25 67.9 24.8 66.9 24.9 65.4 25 64 25.1 62.5 25.3 57.2 25.9 51.4 26.5 46.9 29.7 42.8 32.5 40.5 38.5 42.8 43.1 45.2 47.9 51.5 48.7 56.2 47.6 59.4 46.8 62 45.2 64.8 43.4 64.8 43.7 64.6 44.2 64.6 44.5 64.3 45.7 65 46.7 66.1 47 67.6 47.3 69.5 47 71.1 47 72.9 47 74.9 46.8 75.6 44.8 75.8 44.3 75.9 43.8 76 43.3 77.3 37.7 78.7 32.1 80 26.5 80.3 25.4 80.6 24.3 80.8 23.2 81.4 19.5 80.7 16 77.1 14.1 77.1 14.1 80.7 16 77.1 14.1L77.1 14.1 77.1 14.1ZM77.1 14.1"/><path d="M222.9 2L216.6 2C213.7 2 213.2 4.8 212.7 7.1 212.3 8.9 211.9 10.8 211.4 12.6 210 18.8 208.6 24.9 207.2 31 206.3 35 205.3 38.9 204.4 42.9 204.2 44.1 203.5 45.6 204.7 46.5 205.6 47.2 207 47 208.1 47 210.5 47 214.9 47.7 215.7 44.5 217.9 34.7 220.2 24.9 222.5 15.1 223.1 12.3 223.8 9.5 224.4 6.7 224.8 5 225.8 2 222.9 2"/></g><g transform="translate(15.000000, 48.000000)"><path d="M187.5 38.9C185.7 40 183.6 40.9 181.5 41 180 41.1 177.7 41 176.6 39.7 175.5 38.4 175.9 36 176.8 34.7 177.9 33.1 179.9 32.5 181.7 32.1 182.3 31.9 189.8 30.5 190 31.2 190.2 32.2 189.5 33.8 189.3 34.7 188.9 36.1 188.8 38.1 187.5 38.9 187.5 38.9 187.6 38.8 187.6 38.8 187.6 38.8 187.5 38.9 187.5 38.9L187.5 38.9 187.5 38.9 187.5 38.9 187.5 38.9ZM199.1 14.1C194.8 11.8 189.1 11.8 184.3 12.1 181.6 12.2 178.9 12.5 176.3 13 174.6 13.4 173.1 14 172.5 15.9 172.1 16.9 170.4 21.9 172.7 21.5 173.3 21.4 174 21.1 174.7 20.9 176 20.4 177.4 20.1 178.8 19.9 181.6 19.4 184.4 19.3 187.3 19.7 189.5 20.1 191.5 21 191.5 23.6 191.4 25 189.9 24.8 188.9 24.9 187.4 25 186 25.1 184.5 25.3 179.2 25.9 173.2 26.6 168.6 29.9 164.7 32.8 162.5 38.8 165 43.4 167.5 48 173.8 48.8 178.5 47.5 181.6 46.7 184.1 45.1 186.8 43.4 186.8 43.7 186.6 44.2 186.6 44.5 186.3 45.7 187 46.7 188.1 47 189.6 47.3 191.5 47 193.1 47 194.9 47 196.9 46.8 197.6 44.8 197.8 44.3 197.9 43.8 198 43.3 199.3 37.7 200.7 32.1 202 26.5 202.3 25.4 202.6 24.3 202.8 23.2 203.4 19.5 202.7 16 199.1 14.1 199.1 14.1 202.7 16 199.1 14.1L199.1 14.1 199.1 14.1ZM199.1 14.1" fill="#336699"/><path d="M114.9 13C112 13 110.6 15.5 109.3 17.6 107.7 20.3 106 23 104.4 25.7 103 28 101.6 30.3 100.2 32.6 100 32.9 99.8 33.5 99.3 33.5 98.9 33.5 98.8 33.1 98.7 32.8 98.6 31.9 98.4 31 98.3 30.1 97.7 27 97.2 23.8 96.6 20.7 96.4 19.4 96.2 18.2 96 16.9 95.9 16.2 95.8 15.5 95.5 14.9 94.7 13.4 93 13.1 91.3 13.1L86.9 13.1C85.5 13.1 83.7 13.4 83.9 15.3 84 15.7 84.1 16.2 84.2 16.6 85.3 22.7 86.4 28.8 87.5 34.9 88 38.1 88.6 41.2 89.1 44.4 89.4 45.8 89.6 47.1 89.7 48.6 89.7 49.2 89.7 50 89.4 50.6 88 52.9 86.6 55.2 85.2 57.5 84.5 58.7 81.2 63 84.6 63 86.9 63 89.2 63.1 91.5 63 93.7 63 95.2 61.4 96.3 59.7 101.9 50.5 107.6 41.3 113.3 32.2 115.9 27.8 118.6 23.5 121.3 19.1 121.8 18.3 122.3 17.5 122.8 16.7 123.2 16 123.7 15.3 123.9 14.4 124.4 12.7 122.6 13 121.5 13 119.3 13 117.1 13 114.9 13" fill="#1C3664"/><path d="M44.7 7.6C42 2.5 35.8 1.4 30.7 1.1 28 1 25.3 1 22.6 1 19.7 1 16.8 1 13.9 1 11.9 1 10.1 1.7 9.5 3.9 7.1 14.2 4.6 24.6 2.1 35 1.6 37.1 1.1 39.3 0.6 41.5 0.3 42.6-0.4 44.3 0.4 45.3 1.2 46.2 2.8 46 3.9 46L8.4 46C10 46 11.7 45.3 12.2 43.5 12.4 42.7 12.6 41.8 12.8 41 13.4 38.6 13.8 36.1 14.5 33.8 15 31.5 17.3 31.3 19.2 31.3 21.7 31.3 24.2 31.2 26.6 30.9 35.9 29.6 45.8 24.3 46 13.7 46 11.6 45.8 9.4 44.7 7.6M30.8 20.8C28.9 22.1 26.4 22.7 24.1 22.9 23.1 23 22.1 23 21.2 23 20.4 23 19.5 23.1 18.8 22.6 17.7 21.7 18.1 20.4 18.3 19.3 18.7 17.8 19.1 16.3 19.4 14.9 19.7 13.8 19.9 12.7 20.2 11.7 20.6 9.8 22.4 9 24.1 9 27.8 9 33.6 9 34 13.8 34.2 16.6 33.1 19.1 30.8 20.8" fill="#1C3664"/><path d="M167.7 7.6C165.1 2.6 159.1 1.5 154 1.1 151.3 0.9 148.5 1 145.8 1L136.9 1C134.9 1 133.1 1.6 132.5 3.9 130.1 14.2 127.6 24.6 125.1 35 124.6 37.2 124.1 39.3 123.6 41.5 123.3 42.6 122.6 44.4 123.5 45.4 124.3 46.3 125.9 46 127 46 128.5 46 129.9 46 131.4 46 133 46 134.7 45.3 135.2 43.5 135.4 42.7 135.6 41.8 135.8 41 136.4 38.6 136.8 36.2 137.5 33.8 138 31.6 140.1 31.3 142 31.3 144.4 31.3 146.8 31.2 149.2 30.9 158.4 29.8 168.5 24.7 169 14.3 169.1 12 168.8 9.6 167.7 7.6M153.8 20.8C151.9 22.2 149.4 22.7 147.1 22.9 146.1 23 145.2 23 144.3 23 143.5 23 142.7 23.1 142 22.7 140.7 22 141 20.6 141.3 19.5 141.6 18 142 16.6 142.3 15.1 142.6 14 142.9 12.9 143.1 11.7 143.6 10 145.1 9 146.8 9 150.3 9 156 8.8 156.9 13.2 157.4 16.1 156.2 19.1 153.8 20.8" fill="#336699"/><path d="M65.5 37.9C63.7 39 61.6 39.9 59.5 40 58 40.1 55.7 40 54.6 38.7 53.5 37.4 53.9 35 54.8 33.7 55.9 32.1 57.9 31.5 59.7 31.1 60.3 30.9 67.8 29.5 68 30.2 68.2 31.2 67.5 32.8 67.3 33.7 66.9 35.1 66.8 37.1 65.5 37.9 65.5 37.9 65.6 37.8 65.6 37.8 65.6 37.8 65.5 37.9 65.5 37.9L65.5 37.9 65.5 37.9 65.5 37.9 65.5 37.9ZM77.1 14.1C72.8 11.8 67.1 11.8 62.3 12.1 59.6 12.2 56.9 12.5 54.3 13 52.6 13.4 51.1 14 50.5 15.8 50.1 16.9 48.4 21.9 50.7 21.5 51.3 21.4 52 21.1 52.7 20.9 54 20.4 55.4 20.1 56.8 19.9 59.6 19.4 62.4 19.3 65.3 19.7 67.5 20.1 69.5 21 69.5 23.6 69.4 25 67.9 24.8 66.9 24.9 65.4 25 64 25.1 62.5 25.3 57.2 25.9 51.4 26.5 46.9 29.7 42.8 32.5 40.5 38.5 42.8 43.1 45.2 47.9 51.5 48.7 56.2 47.6 59.4 46.8 62 45.2 64.8 43.4 64.8 43.7 64.6 44.2 64.6 44.5 64.3 45.7 65 46.7 66.1 47 67.6 47.3 69.5 47 71.1 47 72.9 47 74.9 46.8 75.6 44.8 75.8 44.3 75.9 43.8 76 43.3 77.3 37.7 78.7 32.1 80 26.5 80.3 25.4 80.6 24.3 80.8 23.2 81.4 19.5 80.7 16 77.1 14.1 77.1 14.1 80.7 16 77.1 14.1L77.1 14.1 77.1 14.1ZM77.1 14.1" fill="#1C3664"/><path d="M222.9 2L216.6 2C213.7 2 213.2 4.8 212.7 7.1 212.3 8.9 211.9 10.8 211.4 12.6 210 18.8 208.6 24.9 207.2 31 206.3 35 205.3 38.9 204.4 42.9 204.2 44.1 203.5 45.6 204.7 46.5 205.6 47.2 207 47 208.1 47 210.5 47 214.9 47.7 215.7 44.5 217.9 34.7 220.2 24.9 222.5 15.1 223.1 12.3 223.8 9.5 224.4 6.7 224.8 5 225.8 2 222.9 2" fill="#336699"/></g><rect d="M0,0 L0,2 L256,2 L256,0 L0,0 Z M0,0" fill="#FFFFFF" x="0" y="0" width="256" height="2"/></g></svg>