<svg xmlns="http://www.w3.org/2000/svg" width="256" height="160" viewBox="0" version="1.1"><defs><linearGradient x1="50%" y1="0%" x2="50%" y2="100%" id="lg1"><stop stop-color="#FBFBFB" offset="0%"/><stop stop-color="#DEDEDE" offset="100%"/></linearGradient></defs><g stroke="none" stroke-width="1" fill="none" fill-rule="evenodd"><rect d="M0,0 L0,160 L256,160 L256,0 L0,0 Z M0,0" fill="url(#lg1)" x="0" y="0" width="256" height="160"/><g transform="translate(18.000000, 47.000000)" fill="#FFFFFF"><path d="M78 66L89.073 1 107 1 95.927 66 95.927 66 78 66 78 66ZM78 66"/><path d="M160 2.726C156.434 1.409 150.847 0 143.87 0 126.089-0.001 113.562 8.804 113.456 21.421 113.356 30.748 122.398 35.951 129.225 39.055 136.229 42.235 138.584 44.266 138.55 47.107 138.506 51.455 132.956 53.445 127.784 53.445 120.581 53.444 116.755 52.462 110.845 50.039L108.526 49.005 106 63.536C110.204 65.348 117.976 66.918 126.047 67 144.964 66.999 157.244 58.298 157.383 44.824 157.452 37.439 152.657 31.821 142.274 27.188 135.985 24.184 132.132 22.182 132.173 19.142 132.173 16.443 135.433 13.559 142.478 13.559 148.364 13.467 152.626 14.73 155.947 16.045L157.56 16.793 157.56 16.793 160 2.726 160 2.726ZM160 2.726"/><path d="M182 42.999C183.494 39.311 189.198 25.109 189.198 25.109 189.093 25.278 190.682 21.404 191.595 19L192.818 24.516C192.818 24.516 196.276 39.796 197 43 197 43 196.276 39.796 197 43L182 42.999 182 42.999ZM190.23 1C185.893 1 182.754 2.301 180.849 6.534L154 66 173.18 66 176.91 56.04 199.82 56.04 201.951 66 219 66 204.082 1 204.082 1 190.23 1 190.23 1ZM190.23 1"/><path d="M45.264 45.556L43.69 36.645C40.438 26.259 30.329 15.02 19 9.387L34.768 66 53.661 66 82 1 63.107 1 63.107 1 45.264 45.556 45.264 45.556ZM45.264 45.556"/><path d="M0 2.059C22.345 7.492 37.863 21.221 44 37L37.546 6.604C36.468 2.447 33.201 1.146 29.333 1L0 1 0 2.059ZM0 2.059"/></g><g transform="translate(18.000000, 45.000000)"><path d="M78 66L89.073 1 107 1 95.927 66 95.927 66 78 66 78 66ZM78 66" fill="#002295"/><path d="M160 2.726C156.434 1.409 150.847 0 143.87 0 126.089-0.001 113.562 8.804 113.456 21.421 113.356 30.748 122.398 35.951 129.225 39.055 136.229 42.235 138.584 44.266 138.55 47.107 138.506 51.455 132.956 53.445 127.784 53.445 120.581 53.444 116.755 52.462 110.845 50.039L108.526 49.005 106 63.536C110.204 65.348 117.976 66.918 126.047 67 144.964 66.999 157.244 58.298 157.383 44.824 157.452 37.439 152.657 31.821 142.274 27.188 135.985 24.184 132.132 22.182 132.173 19.142 132.173 16.443 135.433 13.559 142.478 13.559 148.364 13.467 152.626 14.73 155.947 16.045L157.56 16.793 157.56 16.793 160 2.726 160 2.726ZM160 2.726" fill="#002295"/><path d="M182 42.999C183.494 39.311 189.198 25.109 189.198 25.109 189.093 25.278 190.682 21.404 191.595 19L192.818 24.516C192.818 24.516 196.276 39.796 197 43 197 43 196.276 39.796 197 43L182 42.999 182 42.999ZM190.23 1C185.893 1 182.754 2.301 180.849 6.534L154 66 173.18 66 176.91 56.04 199.82 56.04 201.951 66 219 66 204.082 1 204.082 1 190.23 1 190.23 1ZM190.23 1" fill="#002295"/><path d="M45.264 45.556L43.69 36.645C40.438 26.259 30.329 15.02 19 9.387L34.768 66 53.661 66 82 1 63.107 1 63.107 1 45.264 45.556 45.264 45.556ZM45.264 45.556" fill="#002295"/><path d="M0 2.059C22.345 7.492 37.863 21.221 44 37L37.546 6.604C36.468 2.447 33.201 1.146 29.333 1L0 1 0 2.059ZM0 2.059" fill="#F6933F"/></g></g></svg>